<svg width="188" height="40" viewBox="0 0 188 40" fill="none" xmlns="http://www.w3.org/2000/svg">
<g clip-path="url(#clip0_230_579)">
<path fill-rule="evenodd" clip-rule="evenodd" d="M187.102 10.7973H187.963L174.808 40H173.949L187.102 10.7973Z" fill="#939393"/>
<path d="M126.145 18.2309H111.249V18.4673H126.145V18.2309Z" fill="#939393"/>
<path fill-rule="evenodd" clip-rule="evenodd" d="M71.1504 4.9964H72.0107L62.5859 31.2019H61.7256L71.1504 4.9964Z" fill="#939393"/>
<path fill-rule="evenodd" clip-rule="evenodd" d="M59.1543 4.9964H60.0146L50.5898 31.2019H49.7295L59.1543 4.9964Z" fill="#939393"/>
<path d="M45.1719 28.0158C46.2655 30.583 47.4067 31.2018 49.5955 31.2018H50.0716L53.9254 20.5013L57.2077 28.0158C58.3029 30.583 59.3965 31.2018 61.5852 31.2018H62.0614L71.5751 4.99637H71.0529L62.8217 27.8254L56.5427 13.3185L59.5393 4.99637H59.0631L56.257 12.7013L54.3063 8.18241C53.2111 5.61518 52.0699 4.99637 49.8812 4.99637H47.1702L53.6397 19.8825L50.7859 27.8254L42.2689 8.18241C41.1753 5.61518 40.0801 4.99637 37.893 4.99637H35.1328L45.1719 28.0158ZM74.5733 4.99637C74.5733 6.51799 75.6193 7.56361 77.143 7.56361C78.7128 7.56361 79.7588 6.51799 79.7588 4.99637C79.7588 3.42715 78.7128 2.42755 77.143 2.42755C75.6193 2.42755 74.5733 3.42715 74.5733 4.99637ZM74.4781 27.9206C74.4781 30.821 76.7145 31.2018 78.7128 31.2018H79.7111V14.0801C79.7111 11.1796 77.4271 10.7988 75.4765 10.7988H74.4781V27.9206ZM98.5037 27.9206C98.5037 30.821 100.74 31.2018 102.691 31.2018H103.737V16.4585C103.737 12.3205 101.454 10.3228 97.5529 10.3228C94.6976 10.3228 92.4612 11.4636 90.3216 13.2249L89.7978 13.6993C89.6074 11.132 87.4662 10.7988 85.5632 10.7988H84.5648V27.9206C84.5648 30.821 86.8012 31.2018 88.7979 31.2018H89.7978V14.2705C91.2279 13.0614 92.8612 11.6064 94.8404 11.6064C96.7435 11.6064 98.5037 13.0345 98.5037 16.5061V27.9206ZM126.145 18.2657C125.718 12.7489 121.15 10.3228 117.011 10.3228C111.968 10.3228 106.64 13.5089 106.64 20.9757C106.64 27.7778 111.778 31.6302 116.725 31.6302C120.483 31.6302 124.148 29.4422 125.575 24.7806C124.337 26.8734 122.293 27.9206 120.152 27.9206C114.776 27.9206 111.682 23.1638 111.635 18.2657H126.145ZM111.635 17.7897C111.778 12.7965 114.347 10.7988 116.82 10.7988C119.247 10.7988 121.293 12.6061 121.293 15.0321C121.293 15.8397 121.15 16.8869 120.626 17.7897H111.635ZM141.179 28.7758C141.179 30.7258 138.99 31.1542 137.42 31.2018C133.614 31.2494 130.332 28.871 128.524 25.5898V29.3946C130.475 30.6306 133.471 31.6778 137.041 31.6778C141.227 31.6778 145.08 30.1546 145.08 26.1118C145.08 20.1205 132.092 16.9805 132.092 13.2709C132.092 11.7492 133.614 10.7988 135.517 10.7988C138.182 10.7988 141.703 12.3681 143.511 15.9349V12.13C141.798 11.0844 138.897 10.3228 136.041 10.3228C132.187 10.3228 128.524 11.7968 128.524 15.7921C128.524 21.5945 141.179 24.211 141.179 28.7758ZM160.59 28.7758C160.59 30.7258 158.402 31.1542 156.832 31.2018C153.026 31.2494 149.744 28.871 147.936 25.5898V29.3946C149.886 30.6306 152.883 31.6778 156.451 31.6778C160.638 31.6778 164.492 30.1546 164.492 26.1118C164.492 20.1205 151.504 16.9805 151.504 13.2709C151.504 11.7492 153.026 10.7988 154.929 10.7988C157.594 10.7988 161.114 12.3681 162.922 15.9349V12.13C161.21 11.0844 158.307 10.3228 155.453 10.3228C151.599 10.3228 147.936 11.7968 147.936 15.7921C147.936 21.5945 160.59 24.211 160.59 28.7758ZM178.307 31.635L187.66 10.7988H187.138L180.477 25.685L173.579 13.0345C172.674 11.3684 172.056 10.7988 170.058 10.7988H166.395L177.764 31.635H178.307Z" fill="#939393"/>
<path fill-rule="evenodd" clip-rule="evenodd" d="M0.702807 24.0825C1.31388 23.0591 2.29636 22.3165 3.41852 21.9833C3.18044 20.8631 3.3471 19.6557 3.9788 18.5989C4.58988 17.5755 5.57077 16.8314 6.69134 16.4982C6.44374 15.3352 6.63897 14.1404 7.25321 13.1122C8.55949 10.9242 11.4434 10.1293 13.71 11.4827C13.956 11.6287 14.1846 11.7969 14.3972 11.9809C15.9241 10.6402 18.1446 10.4085 19.9191 11.4684C20.6921 11.9286 21.2857 12.5791 21.6746 13.3233C21.7159 13.1614 21.7555 12.9932 21.7889 12.8155C21.9825 11.7985 21.9841 10.61 21.7301 9.56125C21.5444 8.72984 21.254 7.87145 20.781 7.15903C20.554 6.81472 20.2778 6.5085 19.9604 6.27526C19.8953 6.91945 19.708 7.72865 19.4287 8.38712C18.4764 10.6069 16.6177 11.0496 15.3607 10.3403C13.8465 9.48033 13.7052 7.30659 15.3559 5.6628C16.2178 4.806 17.4129 4.27764 18.6335 4.29985C18.1859 3.21139 17.1923 2.42123 16.1559 1.87383C15.2766 1.41052 14.1782 1.01861 13.1481 0.815517C12.9307 0.772677 12.7846 0.564823 12.8211 0.345863C12.8576 0.120555 13.0703 -0.0317653 13.2941 0.00472811C14.4449 0.195129 15.6305 0.58545 16.5765 1.04717C18.0875 1.78656 19.3715 2.89723 19.8207 4.50453C20.7477 4.81552 21.5048 5.45336 22.0761 6.26891C22.6825 7.13523 23.0713 8.15546 23.3285 9.18204C23.7094 10.6148 23.7602 11.927 23.6062 13.1011C23.5173 13.7707 23.3618 14.4355 23.1316 15.1019C24.8601 14.664 26.7695 14.7941 28.7837 15.5002C29.3122 15.6858 29.59 16.2649 29.4043 16.7949C29.2186 17.3233 28.6393 17.6025 28.1107 17.4169C26.3061 16.7838 24.6712 16.7076 23.2269 17.1868C25.1601 18.6037 25.7378 21.2931 24.4855 23.3939C23.8729 24.4188 22.892 25.1614 21.7698 25.4946C22.0111 26.6386 21.8222 27.8524 21.2079 28.879C20.3636 30.2943 18.8129 31.1733 17.1622 31.1733C16.0511 31.1733 14.9448 30.7766 14.0671 30.0103C12.5624 31.3304 10.3451 31.597 8.54361 30.5228C8.2976 30.3752 8.07063 30.2086 7.86111 30.0261C6.34216 31.3685 4.10261 31.5922 2.33446 30.5355C0.0980807 29.2043 -0.630448 26.3165 0.702807 24.0825ZM16.34 6.67192C15.5702 7.39545 15.1162 8.6632 16.0114 9.21853C16.6495 9.60727 17.6891 9.35499 18.3526 7.91111C18.6097 7.35419 18.843 6.48946 18.8811 5.81353C17.9827 5.66439 17.0098 6.03726 16.34 6.67192ZM12.6672 13.2249C11.3815 12.4585 9.74037 12.9075 8.99756 14.1531C8.10396 15.6477 8.85629 17.5866 10.5292 18.088C11.126 17.3296 11.9688 16.76 12.9021 16.4823C12.7021 15.5319 12.8037 14.5212 13.191 13.6327C13.0354 13.4756 12.8608 13.3407 12.6672 13.2249ZM18.8779 13.2122C17.597 12.4474 15.9559 12.8869 15.2083 14.1404C14.821 14.7878 14.721 15.5985 14.9655 16.3459C16.1654 16.5347 17.2447 17.182 17.978 18.1436C18.7176 18.015 19.4255 17.5628 19.8509 16.8012C20.5429 15.5462 20.1207 13.9516 18.8779 13.2122ZM20.4143 23.6572C20.4223 23.6572 20.4302 23.6572 20.4382 23.6572C21.3921 23.6572 22.2539 23.1701 22.7412 22.353C23.4967 21.0853 23.0809 19.4383 21.8143 18.683C21.6206 18.5688 21.419 18.4799 21.2095 18.4165C20.6302 19.1527 19.7906 19.7429 18.8367 20.0222C19.0366 20.9774 18.9414 21.969 18.5478 22.8734C19.0303 23.3558 19.6953 23.6477 20.4048 23.6557C20.408 23.6557 20.4112 23.6557 20.4143 23.6572ZM17.1622 29.1424C18.1161 29.1424 18.9763 28.6553 19.4652 27.8381C19.8636 27.1686 19.9461 26.3594 19.7064 25.6295C18.8017 25.4867 17.9827 25.0837 17.3447 24.5283C16.8304 24.9837 16.2209 25.3185 15.5607 25.5121C15.7591 26.4625 15.6591 27.4621 15.2766 28.3506C15.275 28.3522 15.275 28.3554 15.2734 28.3586C15.767 28.8536 16.4495 29.1424 17.1622 29.1424ZM16.0527 22.9591C16.0527 22.9575 16.0543 22.9575 16.0543 22.9559C17.1606 21.9262 17.1844 20.2031 16.159 19.1384C16.1559 19.1352 16.1527 19.1321 16.1495 19.1289C15.0448 17.9912 13.2497 18.0833 12.2339 19.2162C11.2466 20.3157 11.3593 22.0055 12.437 22.9797C12.437 22.9797 12.437 22.9813 12.4386 22.9813C13.4767 23.919 15.0496 23.8905 16.0527 22.9591ZM9.58482 28.779C10.8657 29.5438 12.5069 29.1059 13.2544 27.854C13.6608 27.1717 13.7306 26.3514 13.4957 25.6453C12.2751 25.4518 11.2022 24.787 10.4864 23.8476C9.72132 23.9809 9.02136 24.449 8.61663 25.1805C8.61663 25.182 8.61504 25.182 8.61504 25.182C7.91825 26.4387 8.33886 28.0365 9.58482 28.779ZM9.62292 21.9706C9.47848 21.2979 9.48483 20.6029 9.64196 19.9317C8.83407 19.6271 8.09443 19.094 7.55002 18.3768C6.79451 18.5148 6.12154 18.9718 5.72315 19.6398C4.83907 21.1186 5.57077 23.0686 7.25321 23.5732C7.85318 22.81 8.7071 22.2419 9.62292 21.9706ZM3.37408 28.7917C4.44862 29.4327 5.79774 29.2392 6.6469 28.3792C6.22153 27.4145 6.14852 26.3673 6.36914 25.4185C5.53268 25.1043 4.79939 24.549 4.2772 23.8619C3.5201 23.9984 2.84554 24.4569 2.44715 25.1233C1.69164 26.3911 2.09955 28.0333 3.37408 28.7917Z" fill="#939393"/>
</g>
<defs>
<clipPath id="clip0_230_579">
<rect width="188" height="40" fill="white"/>
</clipPath>
</defs>
</svg>
