<svg width="240" height="100" viewBox="0 0 240 100" fill="none" xmlns="http://www.w3.org/2000/svg">
<path d="M94.5056 79.4073C95.3133 79.6092 96.3482 79.7102 97.6102 79.7102C100.908 79.7102 103.416 78.8941 105.132 77.2619C106.848 75.6128 107.707 73.2318 107.707 70.1187C107.707 67.8639 107.076 66.1307 105.813 64.9191C104.551 63.6908 102.667 63.0766 100.16 63.0766C99.2341 63.0766 98.3759 63.1691 97.585 63.3542L94.5056 79.4073ZM82.8949 95.4352L86.05 94.5013C86.5548 94.3666 86.8409 94.1058 86.9082 93.7188C87.0428 93.0457 87.1942 92.2969 87.3625 91.4724C87.5308 90.631 87.7159 89.7055 87.9178 88.6959L91.8301 68.2257C91.9984 67.3675 92.1414 66.5934 92.2592 65.9035C92.377 65.2136 92.478 64.591 92.5621 64.0357C92.6462 63.615 92.5032 63.329 92.133 63.1775L89.0789 62.1931L89.2303 61.1078C91.3674 61.1751 93.2099 61.2088 94.758 61.2088C95.3975 61.2088 96.5501 61.1751 98.216 61.1078C99.8819 61.0405 101.068 61.0068 101.775 61.0068C105.258 61.0068 107.993 61.7388 109.978 63.2028C111.981 64.6499 112.982 66.7365 112.982 69.4625C112.982 73.4505 111.56 76.5046 108.716 78.6248C105.889 80.7451 102.263 81.8052 97.8374 81.8052C96.5585 81.8052 95.3133 81.7042 94.1018 81.5023L92.7135 88.6959C92.3433 90.6983 92.0489 92.3474 91.8301 93.6431C91.7796 94.0469 91.9479 94.3077 92.3349 94.4255L95.6919 95.4352L95.5405 96.5205C93.0669 96.47 90.8541 96.4448 88.9022 96.4448C86.9166 96.4448 84.8805 96.47 82.7939 96.5205L82.8949 95.4352Z" fill="black"/>
<path d="M125.224 72.769C128.32 72.769 130.793 73.7029 132.644 75.5707C134.495 77.4385 135.421 79.9542 135.421 83.1177C135.421 87.1057 134.251 90.4123 131.912 93.0373C129.573 95.6455 126.553 96.9496 122.851 96.9496C119.704 96.9496 117.214 96.0241 115.38 94.1731C113.546 92.3053 112.628 89.8317 112.628 86.7524C112.628 82.7138 113.781 79.3737 116.086 76.7318C118.392 74.0899 121.437 72.769 125.224 72.769ZM124.921 74.8892C122.683 74.8892 120.865 76.0755 119.469 78.4482C118.089 80.8208 117.407 83.6646 117.424 86.9795C117.441 89.4363 117.946 91.363 118.939 92.7596C119.931 94.1395 121.337 94.8294 123.154 94.8294C125.476 94.8294 127.302 93.6178 128.631 91.1947C129.96 88.7548 130.625 85.9362 130.625 82.7391C130.625 80.2655 130.12 78.3388 129.111 76.959C128.101 75.5791 126.704 74.8892 124.921 74.8892Z" fill="black"/>
<path d="M157.103 91.851L157.658 92.7092C156.43 94.0217 154.957 95.065 153.241 95.839C151.541 96.5962 149.884 96.9748 148.268 96.9748C145.727 96.9748 143.632 96.1167 141.983 94.4003C140.351 92.6671 139.535 90.3197 139.535 87.3581C139.535 83.2187 140.957 79.7523 143.801 76.959C146.661 74.1657 150.102 72.769 154.124 72.769C156.312 72.769 158.407 73.2149 160.409 74.1068C159.787 76.4794 159.273 78.7426 158.869 80.8965L157.885 81.048L155.967 75.1669C155.26 74.9649 154.52 74.864 153.746 74.864C150.986 74.864 148.714 75.9998 146.931 78.2715C145.164 80.5431 144.28 83.3112 144.28 86.5757C144.28 88.9146 144.836 90.7236 145.946 92.0024C147.074 93.2645 148.664 93.8955 150.717 93.8955C152.584 93.8955 154.713 93.214 157.103 91.851Z" fill="black"/>
<path d="M180.475 91.851L181.031 92.7092C179.802 94.0217 178.33 95.065 176.614 95.839C174.914 96.5962 173.257 96.9748 171.641 96.9748C169.1 96.9748 167.005 96.1167 165.356 94.4003C163.724 92.6671 162.908 90.3197 162.908 87.3581C162.908 83.2187 164.33 79.7523 167.174 76.959C170.034 74.1657 173.475 72.769 177.497 72.769C179.685 72.769 181.78 73.2149 183.782 74.1068C183.159 76.4794 182.646 78.7426 182.242 80.8965L181.258 81.048L179.34 75.1669C178.633 74.9649 177.893 74.864 177.118 74.864C174.359 74.864 172.087 75.9998 170.303 78.2715C168.537 80.5431 167.653 83.3112 167.653 86.5757C167.653 88.9146 168.208 90.7236 169.319 92.0024C170.447 93.2645 172.037 93.8955 174.09 93.8955C175.957 93.8955 178.086 93.214 180.475 91.851Z" fill="black"/>
<path d="M206.246 73.5767L210.764 73.2991L206.978 91.6238C206.844 92.2128 206.776 92.6839 206.776 93.0373C206.776 93.7777 207.037 94.2741 207.559 94.5265C208.097 94.7789 209.056 94.8883 210.436 94.8546L210.36 95.839C208.207 96.5458 206.6 96.8991 205.539 96.8991C204.564 96.8991 203.789 96.6215 203.217 96.0662C202.645 95.4941 202.359 94.6527 202.359 93.5421C202.359 93.2392 202.368 92.9279 202.384 92.6082C199.255 95.5361 196.503 97.0001 194.131 97.0001C192.229 97.0001 190.765 96.428 189.739 95.2837C188.712 94.1395 188.199 92.5493 188.199 90.5132C188.199 89.6046 188.309 88.6286 188.527 87.5853L190.622 77.4638C190.673 77.1777 190.715 76.9337 190.748 76.7318C190.799 76.513 190.824 76.3195 190.824 76.1513C190.824 75.7306 190.622 75.4193 190.218 75.2174C189.815 75.0154 188.822 74.9145 187.24 74.9145L187.341 73.9553C189.596 73.1813 191.388 72.7942 192.717 72.7942C193.575 72.7942 194.24 72.9962 194.711 73.4C195.199 73.787 195.443 74.4012 195.443 75.2426C195.443 75.6296 195.41 75.9746 195.342 76.2775L192.843 87.6105C192.675 88.3846 192.591 89.0661 192.591 89.655C192.591 90.9339 192.911 91.9099 193.55 92.583C194.206 93.256 195.149 93.5926 196.377 93.5926C198.009 93.5926 200.13 92.5493 202.738 90.4627L206.246 73.5767Z" fill="black"/>
<path d="M235.021 73.5767L239.539 73.2991L235.753 91.6238C235.618 92.2128 235.551 92.6839 235.551 93.0373C235.551 93.7777 235.812 94.2741 236.333 94.5265C236.872 94.7789 237.831 94.8883 239.211 94.8546L239.135 95.839C236.981 96.5458 235.374 96.8991 234.314 96.8991C233.338 96.8991 232.564 96.6215 231.992 96.0662C231.42 95.4941 231.134 94.6527 231.134 93.5421C231.134 93.2392 231.142 92.9279 231.159 92.6082C228.029 95.5361 225.278 97.0001 222.905 97.0001C221.004 97.0001 219.54 96.428 218.513 95.2837C217.487 94.1395 216.974 92.5493 216.974 90.5132C216.974 89.6046 217.083 88.6286 217.302 87.5853L219.397 77.4638C219.447 77.1777 219.489 76.9337 219.523 76.7318C219.573 76.513 219.599 76.3195 219.599 76.1513C219.599 75.7306 219.397 75.4193 218.993 75.2174C218.589 75.0154 217.596 74.9145 216.014 74.9145L216.115 73.9553C218.37 73.1813 220.162 72.7942 221.492 72.7942C222.35 72.7942 223.014 72.9962 223.486 73.4C223.974 73.787 224.218 74.4012 224.218 75.2426C224.218 75.6296 224.184 75.9746 224.117 76.2775L221.618 87.6105C221.45 88.3846 221.365 89.0661 221.365 89.655C221.365 90.9339 221.685 91.9099 222.325 92.583C222.981 93.256 223.923 93.5926 225.152 93.5926C226.784 93.5926 228.904 92.5493 231.512 90.4627L235.021 73.5767Z" fill="black"/>
<path d="M91.7841 2.21153C94.8866 2.30555 97.8716 2.35256 100.739 2.35256C101.444 2.35256 102.749 2.2938 104.652 2.17628C106.58 2.05876 107.919 2 108.672 2C113.631 2 117.368 2.90489 119.883 4.71468C122.421 6.52446 123.69 8.9806 123.69 12.0831C123.69 18.9697 119.836 23.2708 112.127 24.9866C118.496 26.7259 121.681 30.3455 121.681 35.8453C121.681 40.9456 119.707 44.8825 115.758 47.6559C111.833 50.4059 106.627 51.7808 100.14 51.7808C98.9645 51.7808 97.6365 51.7456 96.1558 51.6751C94.6986 51.6045 93.1238 51.5693 91.4316 51.5693C88.5876 51.5693 85.7084 51.6045 82.7939 51.6751L82.935 50.1591L87.3419 48.8546C87.9765 48.6666 88.3761 48.3023 88.5406 47.7617C88.7286 46.8215 88.9402 45.7756 89.1752 44.624C89.4102 43.4488 89.6688 42.1561 89.9508 40.7458L95.4154 12.1536C95.6505 10.9549 95.8503 9.87374 96.0148 8.91009C96.1793 7.94644 96.3203 7.0768 96.4378 6.30118C96.5554 5.71358 96.3556 5.31402 95.8385 5.10249L91.5726 3.72752L91.7841 2.21153ZM99.2583 26.8199L95.2039 48.5021C96.4496 48.8781 98.1419 49.0662 100.281 49.0662C104.793 49.0662 108.225 48.0085 110.575 45.8932C112.949 43.7543 114.136 40.6401 114.136 36.5504C114.136 33.3774 113.208 30.9448 111.351 29.2525C109.518 27.5368 106.838 26.6789 103.313 26.6789C101.973 26.6789 100.622 26.7259 99.2583 26.8199ZM99.8224 24.1052C100.88 24.1522 102.02 24.1757 103.242 24.1757C107.731 24.1757 111.081 23.2473 113.29 21.3905C115.523 19.5103 116.639 16.6781 116.639 12.894C116.639 10.3086 115.793 8.33425 114.101 6.97103C112.432 5.58431 109.952 4.89095 106.662 4.89095C105.628 4.89095 104.547 4.97322 103.418 5.13774L99.8224 24.1052Z" fill="black"/>
<path d="M154.892 19.6278L161.202 19.24L155.914 44.8355C155.726 45.6581 155.632 46.3162 155.632 46.8098C155.632 47.844 155.996 48.5373 156.725 48.8899C157.477 49.2424 158.817 49.3952 160.744 49.3482L160.638 50.7232C157.63 51.7103 155.385 52.2039 153.904 52.2039C152.541 52.2039 151.46 51.8161 150.661 51.0405C149.862 50.2413 149.462 49.0662 149.462 47.5149C149.462 47.0918 149.474 46.657 149.497 46.2105C145.126 50.3001 141.283 52.3449 137.969 52.3449C135.313 52.3449 133.268 51.5458 131.834 49.9475C130.401 48.3493 129.684 46.1282 129.684 43.2842C129.684 42.015 129.837 40.6518 130.142 39.1946L133.068 25.0571C133.139 24.6576 133.198 24.3168 133.245 24.0347C133.315 23.7292 133.35 23.4589 133.35 23.2238C133.35 22.6362 133.068 22.2014 132.504 21.9194C131.94 21.6373 130.553 21.4963 128.344 21.4963L128.485 20.1566C131.635 19.0754 134.138 18.5349 135.995 18.5349C137.193 18.5349 138.122 18.8169 138.78 19.381C139.461 19.9216 139.802 20.7795 139.802 21.9546C139.802 22.4952 139.755 22.977 139.661 23.4001L136.171 39.2299C135.936 40.311 135.818 41.2629 135.818 42.0856C135.818 43.8718 136.265 45.235 137.158 46.1752C138.075 47.1153 139.391 47.5854 141.107 47.5854C143.386 47.5854 146.348 46.1282 149.991 43.2137L154.892 19.6278Z" fill="black"/>
<path d="M174.635 51.393L168.289 51.7456L173.789 25.0571C173.859 24.6576 173.918 24.3168 173.965 24.0347C174.035 23.7292 174.071 23.4589 174.071 23.2238C174.071 22.5892 173.8 22.1544 173.26 21.9194C172.672 21.6373 171.285 21.4963 169.1 21.4963L169.205 20.1566C172.378 19.0754 174.881 18.5349 176.715 18.5349C177.913 18.5349 178.842 18.8169 179.5 19.381C180.182 19.9216 180.522 20.7795 180.522 21.9546C180.522 22.4952 180.475 22.977 180.381 23.4001L178.407 32.9191H192.932L195.753 19.5573L202.063 19.1695L196.669 45.1528C196.552 45.6464 196.481 46.0459 196.458 46.3515C196.434 46.657 196.423 46.8921 196.423 47.0566C196.423 47.9967 196.81 48.6196 197.586 48.9251C198.385 49.2072 199.701 49.3482 201.535 49.3482L201.429 50.7232C198.467 51.7103 196.094 52.2039 194.307 52.2039C192.897 52.2039 191.828 51.8748 191.099 51.2167C190.37 50.5351 190.006 49.4892 190.006 48.079C190.006 47.7499 190.03 47.3504 190.077 46.8803C190.124 46.4102 190.241 45.7286 190.429 44.8355L192.333 35.8101H177.808L174.635 51.393Z" fill="black"/>
<path d="M239.611 18.7816C239.305 19.8628 238.929 21.2848 238.482 23.0476C238.036 24.8103 237.213 28.6062 236.015 34.4351L233.793 45.4348C233.699 45.9049 233.652 46.3632 233.652 46.8098C233.652 47.8205 234.017 48.5138 234.745 48.8899C235.497 49.2424 236.837 49.3952 238.764 49.3482L238.659 50.7232C235.603 51.7103 233.347 52.2039 231.89 52.2039C230.55 52.2039 229.469 51.8043 228.646 51.0052C227.847 50.2061 227.447 49.0426 227.447 47.5149C227.447 47.2799 227.459 46.9038 227.483 46.3867C225.132 48.4551 223.123 49.971 221.454 50.9347C219.785 51.8748 218.61 52.3449 217.928 52.3449C214.92 52.3449 212.546 51.1932 210.807 48.8899C209.068 46.563 208.198 43.6838 208.198 40.2523C208.198 34.1178 210.043 28.9587 213.733 24.7751C217.423 20.5679 222.089 18.4643 227.73 18.4643C229.892 18.4643 232.371 18.8992 235.168 19.7688C236.32 19.5103 237.672 19.0872 239.223 18.4996L239.611 18.7816ZM232.242 22.695C230.526 21.7079 228.846 21.2143 227.201 21.2143C223.746 21.2143 220.819 23.0241 218.422 26.6436C216.025 30.2632 214.826 34.2588 214.826 38.6305C214.826 41.1454 215.284 43.2725 216.201 45.0118C217.141 46.751 218.457 47.6207 220.15 47.6207C220.69 47.6207 221.619 47.3034 222.935 46.6688C224.251 46.0342 225.931 44.953 227.976 43.4253L232.242 22.695Z" fill="black"/>
<path fill-rule="evenodd" clip-rule="evenodd" d="M41.8642 34.0327C42.5754 32.8135 44.8513 30.314 48.2653 30.0701C47.7572 27.9364 47.4118 22.2669 50.0942 16.6583C52.7765 11.0497 55.4792 7.81862 56.4953 6.90418L54.3616 3.85602C52.9391 5.07528 49.9722 7.87958 49.4845 9.3427C47.7572 9.4443 43.8759 9.8304 42.169 10.562C40.462 11.2935 36.7839 13.3053 35.1582 14.2197C33.2277 10.1555 26.9892 2.51484 17.4789 4.46565C17.3773 5.88812 17.4789 9.03788 18.6982 10.2571C15.9549 11.07 9.73663 13.4272 6.8104 16.3534C3.88418 19.2797 1.73015 21.6369 1.01891 22.4498C2.64459 24.177 7.05425 27.9364 11.6874 29.1557C10.5698 30.2733 8.09062 33.7279 7.11522 38.605C6.13981 43.482 6.91201 48.7655 7.42003 50.7976L12.9067 50.7976C13.9228 49.2735 16.8693 46.2253 20.5271 46.2253C20.0191 43.99 19.9175 38.483 23.5752 34.3375C27.233 30.1921 33.0245 29.7653 35.7678 30.3749C37.5967 30.6798 41.1326 32.5696 41.8642 34.0327ZM38.5113 16.9632C40.0354 15.8455 43.8761 13.5492 47.0461 13.3054C46.3349 14.8295 44.9734 18.2434 45.2172 19.7065C43.7948 18.792 40.4621 16.9632 38.5113 16.9632Z" fill="#0E7B33" stroke="#0E7B33" stroke-width="0.462873"/>
<path d="M68.6875 26.717C68.6875 31.599 64.7298 35.5567 59.8478 35.5567C54.9658 35.5567 51.0082 31.599 51.0082 26.717C51.0082 21.835 54.9658 17.8774 59.8478 17.8774C64.7298 17.8774 68.6875 21.835 68.6875 26.717Z" fill="#AD0D27"/>
<path d="M61.1967 38.6036C60.9148 39.4675 60.7624 40.3899 60.7624 41.3479C60.7624 46.2299 64.72 50.1876 69.602 50.1876C74.484 50.1876 78.4417 46.2299 78.4417 41.3479C78.4417 36.466 74.484 32.5083 69.602 32.5083C69.5588 32.5083 69.5157 32.5086 69.4727 32.5092C68.3308 36.0088 65.0643 38.5482 61.1967 38.6036Z" fill="#AD0D27"/>
<path d="M57.9953 39.1275C54.6239 38.6531 51.8631 36.277 50.8327 33.1188C50.7897 33.1182 50.7466 33.1179 50.7034 33.1179C45.8214 33.1179 41.8638 37.0755 41.8638 41.9575C41.8638 46.8395 45.8214 50.7972 50.7034 50.7972C54.3032 50.7972 57.4005 48.6454 58.779 45.5579C58.0998 44.3062 57.7141 42.8721 57.7141 41.3479C57.7141 40.5811 57.8117 39.837 57.9953 39.1275Z" fill="#AD0D27"/>
<path d="M32.4144 33.118C35.5382 33.118 38.2836 34.7383 39.8558 37.1844C39.1922 38.425 38.8159 39.8424 38.8159 41.3477C38.8159 43.0225 39.2817 44.5886 40.0908 45.9233C36.7392 46.0162 33.8538 47.9746 32.4361 50.7973C32.4289 50.7973 32.4217 50.7973 32.4144 50.7973C27.5324 50.7973 23.5748 46.8397 23.5748 41.9577C23.5748 37.0757 27.5324 33.118 32.4144 33.118Z" fill="#AD0D27"/>
<path d="M30.607 53.8455C30.5999 53.8455 30.5928 53.8455 30.5857 53.8455C27.1361 53.8455 24.148 51.8696 22.6916 48.9877C18.079 49.2855 14.43 53.121 14.43 57.8088C14.43 62.6908 18.3877 66.6484 23.2697 66.6484C26.5159 66.6484 29.3535 64.8986 30.8905 62.2906C30.1157 60.9763 29.6713 59.4441 29.6713 57.808C29.6713 56.3833 30.0083 55.0374 30.607 53.8455Z" fill="#AD0D27"/>
<path d="M49.2295 53.8418C45.8877 53.7473 43.0102 51.798 41.5898 48.9871C36.9775 49.2852 33.3289 53.1205 33.3289 57.8081C33.3289 62.6901 37.2865 66.6477 42.1685 66.6477C45.5451 66.6477 48.4795 64.7545 49.9681 61.9717C49.0832 60.595 48.5699 58.9567 48.5699 57.1985C48.5699 56.0103 48.8044 54.8768 49.2295 53.8418Z" fill="#AD0D27"/>
<path d="M60.8134 48.3659C60.7797 48.3645 60.7459 48.3634 60.7121 48.3624C59.3905 51.5798 56.2259 53.8454 52.5321 53.8454C52.4469 53.8454 52.362 53.8442 52.2774 53.8418C51.8523 54.8768 51.6178 56.0102 51.6178 57.1985C51.6178 62.0805 55.5755 66.0381 60.4574 66.0381C65.3394 66.0381 69.2971 62.0805 69.2971 57.1985C69.2971 56.009 69.0621 54.8743 68.6361 53.8384C65.0972 53.6983 62.0932 51.4776 60.8134 48.3659Z" fill="#AD0D27"/>
<path d="M52.2788 63.6027C52.2451 63.6014 52.2115 63.6002 52.1777 63.5993C50.8562 66.8169 47.6914 69.0827 43.9975 69.0827C43.9122 69.0827 43.8271 69.0815 43.7424 69.0791C43.3174 70.1139 43.083 71.2473 43.083 72.4353C43.083 77.3173 47.0406 81.275 51.9226 81.275C56.8046 81.275 60.7623 77.3173 60.7623 72.4353C60.7623 71.2459 60.5273 70.1114 60.1014 69.0756C56.5625 68.9353 53.5585 66.7146 52.2788 63.6027Z" fill="#AD0D27"/>
<path d="M40.696 69.6887C40.5777 69.6934 40.4589 69.6958 40.3395 69.6958C36.8652 69.6958 33.859 67.6914 32.4142 64.7758C31.0191 67.5911 28.1681 69.5569 24.8455 69.6887C24.4195 70.7245 24.1846 71.8591 24.1846 73.0486C24.1846 77.9305 28.1422 81.8882 33.0242 81.8882C36.4985 81.8882 39.5047 79.8838 40.9494 76.9683C40.3641 75.7871 40.0351 74.4563 40.0351 73.0486C40.0351 71.8592 40.27 70.7246 40.696 69.6887Z" fill="#AD0D27"/>
<path d="M42.9288 79.6968C41.5503 82.7844 38.4529 84.9364 34.853 84.9364C34.5907 84.9364 34.3311 84.925 34.0745 84.9026C33.9851 85.407 33.9384 85.9263 33.9384 86.4564C33.9384 91.3384 37.8961 95.2961 42.7781 95.2961C47.6601 95.2961 51.6177 91.3384 51.6177 86.4564C51.6177 85.7137 51.5261 84.9924 51.3536 84.3032C51.139 84.3188 50.9222 84.3268 50.7036 84.3268C47.3457 84.3268 44.425 82.4544 42.9288 79.6968Z" fill="#AD0D27"/>
</svg>
