<svg width="32" height="32" viewBox="0 0 32 32" fill="none" xmlns="http://www.w3.org/2000/svg">
<path fill-rule="evenodd" clip-rule="evenodd" d="M1.36129 24.699C1.99813 23.6495 3.02205 22.8879 4.19152 22.5462C3.9434 21.3974 4.11709 20.159 4.77543 19.0753C5.41228 18.0257 6.43454 17.2625 7.60236 16.9208C7.34431 15.728 7.54777 14.5027 8.18792 13.4482C9.54928 11.2043 12.5549 10.389 14.917 11.7771C15.1734 11.9268 15.4116 12.0993 15.6332 12.288C17.2245 10.913 19.5386 10.6754 21.388 11.7624C22.1935 12.2343 22.8122 12.9015 23.2174 13.6647C23.2604 13.4987 23.3018 13.3262 23.3365 13.1439C23.5383 12.1009 23.54 10.8821 23.2753 9.80646C23.0818 8.95378 22.7791 8.07344 22.2862 7.3428C22.0496 6.98969 21.7618 6.67563 21.431 6.43643C21.3631 7.09709 21.168 7.92699 20.8768 8.60229C19.8843 10.8788 17.9473 11.3328 16.6373 10.6054C15.0592 9.72347 14.912 7.49414 16.6323 5.80831C17.5305 4.92959 18.7761 4.38772 20.0481 4.4105C19.5816 3.29421 18.5461 2.48384 17.466 1.92244C16.5496 1.44728 15.4049 1.04535 14.3314 0.837062C14.1048 0.793126 13.9526 0.579956 13.9906 0.355396C14.0287 0.124327 14.2503 -0.0318891 14.4836 0.00553758C15.6828 0.200807 16.9185 0.601111 17.9043 1.07464C19.4791 1.83294 20.8173 2.97201 21.2854 4.62042C22.2514 4.93936 23.0404 5.59351 23.6359 6.42992C24.2678 7.31839 24.6731 8.36472 24.941 9.41755C25.338 10.887 25.391 12.2327 25.2305 13.4368C25.1379 14.1235 24.9758 14.8054 24.7359 15.4888C26.5373 15.0397 28.5272 15.1731 30.6263 15.8973C31.1772 16.0876 31.4666 16.6816 31.2731 17.2251C31.0796 17.767 30.4758 18.0534 29.925 17.863C28.0442 17.2137 26.3405 17.1356 24.8352 17.627C26.8499 19.0801 27.452 21.8383 26.1469 23.9928C25.5084 25.044 24.4862 25.8056 23.3167 26.1473C23.5681 27.3205 23.3713 28.5654 22.7311 29.6182C21.8511 31.0697 20.235 31.9712 18.5147 31.9712C17.3568 31.9712 16.2039 31.5644 15.2891 30.7784C13.721 32.1323 11.4102 32.4057 9.53274 31.304C9.27635 31.1527 9.03981 30.9818 8.82146 30.7947C7.23845 32.1714 4.90446 32.4008 3.06175 31.3171C0.731064 29.9518 -0.0281857 26.9902 1.36129 24.699ZM17.6579 6.84324C16.8556 7.58526 16.3825 8.88544 17.3155 9.45497C17.9804 9.85365 19.0639 9.59492 19.7553 8.11412C20.0233 7.54295 20.2665 6.6561 20.3061 5.9629C19.3699 5.80993 18.3559 6.19234 17.6579 6.84324ZM13.8302 13.5638C12.4903 12.7778 10.78 13.2383 10.0058 14.5157C9.07454 16.0486 9.85861 18.0371 11.6021 18.5513C12.224 17.7735 13.1024 17.1893 14.075 16.9045C13.8666 15.9298 13.9725 14.8932 14.3761 13.982C14.214 13.8209 14.032 13.6826 13.8302 13.5638ZM20.3028 13.5508C18.968 12.7664 17.2576 13.2172 16.4785 14.5027C16.0749 15.1666 15.9707 15.9981 16.2254 16.7646C17.4759 16.9582 18.6007 17.6221 19.3649 18.6082C20.1358 18.4764 20.8735 18.0127 21.3168 17.2316C22.038 15.9444 21.598 14.3091 20.3028 13.5508ZM21.904 24.2629C21.9123 24.2629 21.9206 24.2629 21.9289 24.2629C22.923 24.2629 23.8212 23.7634 24.329 22.9253C25.1164 21.6252 24.683 19.9361 23.363 19.1615C23.1612 19.0443 22.9511 18.9532 22.7328 18.8881C22.129 19.6432 21.254 20.2485 20.2598 20.5349C20.4683 21.5145 20.369 22.5315 19.9588 23.4591C20.4616 23.9538 21.1547 24.2532 21.8941 24.2613C21.8974 24.2613 21.9007 24.2613 21.904 24.2629ZM18.5147 29.8883C19.5089 29.8883 20.4054 29.3888 20.9149 28.5507C21.3301 27.864 21.4161 27.0341 21.1663 26.2856C20.2234 26.1392 19.3699 25.7258 18.7049 25.1563C18.169 25.6233 17.5338 25.9667 16.8457 26.1652C17.0525 27.1399 16.9482 28.1651 16.5496 29.0763C16.5479 29.078 16.5479 29.0812 16.5463 29.0845C17.0607 29.5922 17.772 29.8883 18.5147 29.8883ZM17.3585 23.5469C17.3585 23.5453 17.3601 23.5453 17.3601 23.5437C18.5131 22.4876 18.5379 20.7204 17.4693 19.6285C17.466 19.6253 17.4627 19.622 17.4594 19.6188C16.3081 18.452 14.4373 18.5464 13.3786 19.7083C12.3497 20.836 12.4672 22.569 13.5903 23.5681C13.5903 23.5681 13.5903 23.5697 13.592 23.5697C14.6738 24.5314 16.3131 24.5021 17.3585 23.5469ZM10.6179 29.5157C11.9527 30.3 13.6631 29.8509 14.4422 28.567C14.8657 27.8673 14.9385 27.026 14.6937 26.3019C13.4216 26.1034 12.3034 25.4215 11.5574 24.4582C10.7601 24.5949 10.0306 25.0749 9.60883 25.8251C9.60883 25.8267 9.60718 25.8267 9.60718 25.8267C8.88101 27.1155 9.31936 28.7541 10.6179 29.5157ZM10.6576 22.5332C10.507 21.8432 10.5136 21.1305 10.6774 20.4422C9.83545 20.1297 9.06462 19.583 8.49725 18.8475C7.70988 18.989 7.00852 19.4577 6.59333 20.1427C5.67198 21.6593 6.43454 23.6592 8.18792 24.1767C8.81319 23.394 9.70312 22.8114 10.6576 22.5332ZM4.14521 29.5287C5.26506 30.1861 6.67108 29.9876 7.55604 29.1056C7.11273 28.1163 7.03664 27.0423 7.26657 26.0692C6.39484 25.747 5.63062 25.1775 5.08641 24.4729C4.29739 24.6128 3.59438 25.0831 3.17919 25.7665C2.39182 27.0667 2.81693 28.7509 4.14521 29.5287Z" fill="#FF4A3D"/>
</svg>
