<?xml version="1.0" encoding="UTF-8"?>
<svg xmlns="http://www.w3.org/2000/svg" xmlns:xlink="http://www.w3.org/1999/xlink" width="240px" height="100px" viewBox="0 0 120 50" version="1.1">
<g id="surface1">
<path style=" stroke:none;fill-rule:nonzero;fill:rgb(0%,0%,0%);fill-opacity:1;" d="M 47.253906 39.703125 C 47.65625 39.804688 48.175781 39.855469 48.804688 39.855469 C 50.453125 39.855469 51.707031 39.445312 52.566406 38.632812 C 53.425781 37.804688 53.851562 36.617188 53.851562 35.058594 C 53.851562 33.933594 53.539062 33.066406 52.90625 32.460938 C 52.277344 31.84375 51.332031 31.539062 50.078125 31.539062 C 49.617188 31.539062 49.1875 31.585938 48.792969 31.675781 Z M 41.449219 47.71875 L 43.023438 47.25 C 43.277344 47.183594 43.421875 47.054688 43.453125 46.859375 C 43.519531 46.523438 43.597656 46.148438 43.679688 45.734375 C 43.765625 45.316406 43.859375 44.851562 43.957031 44.347656 L 45.914062 34.113281 C 46 33.683594 46.070312 33.296875 46.128906 32.953125 C 46.1875 32.605469 46.238281 32.296875 46.28125 32.019531 C 46.324219 31.808594 46.25 31.664062 46.066406 31.589844 L 44.539062 31.097656 L 44.613281 30.554688 C 45.683594 30.585938 46.605469 30.605469 47.378906 30.605469 C 47.699219 30.605469 48.273438 30.585938 49.109375 30.554688 C 49.941406 30.519531 50.535156 30.503906 50.886719 30.503906 C 52.628906 30.503906 53.996094 30.871094 54.988281 31.601562 C 55.992188 32.324219 56.492188 33.367188 56.492188 34.730469 C 56.492188 36.726562 55.78125 38.253906 54.359375 39.3125 C 52.945312 40.371094 51.132812 40.902344 48.917969 40.902344 C 48.277344 40.902344 47.65625 40.851562 47.050781 40.75 L 46.355469 44.347656 C 46.171875 45.347656 46.023438 46.171875 45.914062 46.820312 C 45.890625 47.023438 45.972656 47.152344 46.167969 47.210938 L 47.847656 47.71875 L 47.769531 48.261719 C 46.535156 48.234375 45.425781 48.222656 44.449219 48.222656 C 43.457031 48.222656 42.441406 48.234375 41.398438 48.261719 Z M 41.449219 47.71875 "/>
<path style=" stroke:none;fill-rule:nonzero;fill:rgb(0%,0%,0%);fill-opacity:1;" d="M 62.613281 36.382812 C 64.160156 36.382812 65.398438 36.851562 66.320312 37.785156 C 67.246094 38.71875 67.710938 39.976562 67.710938 41.558594 C 67.710938 43.554688 67.125 45.207031 65.957031 46.519531 C 64.785156 47.824219 63.277344 48.476562 61.425781 48.476562 C 59.851562 48.476562 58.605469 48.011719 57.691406 47.085938 C 56.773438 46.152344 56.3125 44.914062 56.3125 43.375 C 56.3125 41.355469 56.890625 39.6875 58.042969 38.367188 C 59.195312 37.046875 60.71875 36.382812 62.613281 36.382812 Z M 62.460938 37.445312 C 61.339844 37.445312 60.433594 38.039062 59.734375 39.222656 C 59.042969 40.410156 58.703125 41.832031 58.710938 43.488281 C 58.71875 44.71875 58.972656 45.679688 59.46875 46.378906 C 59.964844 47.070312 60.667969 47.414062 61.578125 47.414062 C 62.738281 47.414062 63.652344 46.808594 64.316406 45.597656 C 64.980469 44.378906 65.3125 42.96875 65.3125 41.371094 C 65.3125 40.132812 65.058594 39.167969 64.554688 38.480469 C 64.050781 37.789062 63.351562 37.445312 62.460938 37.445312 Z M 62.460938 37.445312 "/>
<path style=" stroke:none;fill-rule:nonzero;fill:rgb(0%,0%,0%);fill-opacity:1;" d="M 78.550781 45.925781 L 78.828125 46.355469 C 78.214844 47.011719 77.476562 47.53125 76.621094 47.917969 C 75.769531 48.296875 74.941406 48.488281 74.132812 48.488281 C 72.863281 48.488281 71.816406 48.058594 70.992188 47.199219 C 70.175781 46.332031 69.765625 45.160156 69.765625 43.679688 C 69.765625 41.609375 70.476562 39.875 71.902344 38.480469 C 73.332031 37.082031 75.050781 36.382812 77.0625 36.382812 C 78.15625 36.382812 79.203125 36.609375 80.203125 37.054688 C 79.894531 38.238281 79.636719 39.371094 79.433594 40.449219 L 78.941406 40.523438 L 77.984375 37.582031 C 77.628906 37.484375 77.261719 37.433594 76.871094 37.433594 C 75.492188 37.433594 74.355469 38 73.464844 39.136719 C 72.582031 40.273438 72.140625 41.65625 72.140625 43.289062 C 72.140625 44.457031 72.417969 45.363281 72.972656 46 C 73.535156 46.632812 74.332031 46.949219 75.359375 46.949219 C 76.292969 46.949219 77.355469 46.605469 78.550781 45.925781 Z M 78.550781 45.925781 "/>
<path style=" stroke:none;fill-rule:nonzero;fill:rgb(0%,0%,0%);fill-opacity:1;" d="M 90.238281 45.925781 L 90.515625 46.355469 C 89.902344 47.011719 89.164062 47.53125 88.308594 47.917969 C 87.457031 48.296875 86.628906 48.488281 85.820312 48.488281 C 84.550781 48.488281 83.503906 48.058594 82.679688 47.199219 C 81.863281 46.332031 81.453125 45.160156 81.453125 43.679688 C 81.453125 41.609375 82.164062 39.875 83.585938 38.480469 C 85.015625 37.082031 86.738281 36.382812 88.75 36.382812 C 89.84375 36.382812 90.890625 36.609375 91.890625 37.054688 C 91.578125 38.238281 91.324219 39.371094 91.121094 40.449219 L 90.628906 40.523438 L 89.671875 37.582031 C 89.316406 37.484375 88.945312 37.433594 88.558594 37.433594 C 87.179688 37.433594 86.042969 38 85.152344 39.136719 C 84.269531 40.273438 83.828125 41.65625 83.828125 43.289062 C 83.828125 44.457031 84.105469 45.363281 84.660156 46 C 85.222656 46.632812 86.019531 46.949219 87.046875 46.949219 C 87.976562 46.949219 89.042969 46.605469 90.238281 45.925781 Z M 90.238281 45.925781 "/>
<path style=" stroke:none;fill-rule:nonzero;fill:rgb(0%,0%,0%);fill-opacity:1;" d="M 103.121094 36.789062 L 105.382812 36.648438 L 103.488281 45.8125 C 103.421875 46.105469 103.386719 46.34375 103.386719 46.519531 C 103.386719 46.890625 103.519531 47.136719 103.78125 47.261719 C 104.046875 47.390625 104.527344 47.445312 105.21875 47.425781 L 105.179688 47.917969 C 104.101562 48.273438 103.300781 48.449219 102.769531 48.449219 C 102.28125 48.449219 101.894531 48.3125 101.609375 48.03125 C 101.324219 47.746094 101.179688 47.328125 101.179688 46.769531 C 101.179688 46.621094 101.183594 46.464844 101.191406 46.304688 C 99.628906 47.769531 98.25 48.5 97.066406 48.5 C 96.113281 48.5 95.382812 48.214844 94.871094 47.640625 C 94.355469 47.070312 94.097656 46.273438 94.097656 45.257812 C 94.097656 44.800781 94.15625 44.3125 94.261719 43.792969 L 95.3125 38.730469 C 95.335938 38.589844 95.359375 38.46875 95.375 38.367188 C 95.398438 38.257812 95.410156 38.160156 95.410156 38.074219 C 95.410156 37.867188 95.3125 37.710938 95.109375 37.609375 C 94.90625 37.507812 94.410156 37.457031 93.621094 37.457031 L 93.671875 36.976562 C 94.796875 36.589844 95.695312 36.398438 96.359375 36.398438 C 96.789062 36.398438 97.121094 36.5 97.355469 36.699219 C 97.597656 36.894531 97.722656 37.199219 97.722656 37.621094 C 97.722656 37.816406 97.703125 37.988281 97.671875 38.140625 L 96.421875 43.804688 C 96.335938 44.191406 96.296875 44.53125 96.296875 44.828125 C 96.296875 45.46875 96.457031 45.953125 96.773438 46.292969 C 97.101562 46.628906 97.574219 46.796875 98.1875 46.796875 C 99.003906 46.796875 100.066406 46.273438 101.367188 45.230469 Z M 103.121094 36.789062 "/>
<path style=" stroke:none;fill-rule:nonzero;fill:rgb(0%,0%,0%);fill-opacity:1;" d="M 117.511719 36.789062 L 119.769531 36.648438 L 117.875 45.8125 C 117.808594 46.105469 117.777344 46.34375 117.777344 46.519531 C 117.777344 46.890625 117.90625 47.136719 118.167969 47.261719 C 118.4375 47.390625 118.914062 47.445312 119.605469 47.425781 L 119.566406 47.917969 C 118.492188 48.273438 117.6875 48.449219 117.15625 48.449219 C 116.667969 48.449219 116.28125 48.3125 115.996094 48.03125 C 115.710938 47.746094 115.566406 47.328125 115.566406 46.769531 C 115.566406 46.621094 115.570312 46.464844 115.578125 46.304688 C 114.015625 47.769531 112.640625 48.5 111.453125 48.5 C 110.503906 48.5 109.769531 48.214844 109.257812 47.640625 C 108.742188 47.070312 108.488281 46.273438 108.488281 45.257812 C 108.488281 44.800781 108.542969 44.3125 108.652344 43.792969 L 109.699219 38.730469 C 109.722656 38.589844 109.746094 38.46875 109.761719 38.367188 C 109.785156 38.257812 109.800781 38.160156 109.800781 38.074219 C 109.800781 37.867188 109.699219 37.710938 109.496094 37.609375 C 109.292969 37.507812 108.796875 37.457031 108.007812 37.457031 L 108.058594 36.976562 C 109.183594 36.589844 110.082031 36.398438 110.746094 36.398438 C 111.175781 36.398438 111.507812 36.5 111.742188 36.699219 C 111.988281 36.894531 112.109375 37.199219 112.109375 37.621094 C 112.109375 37.816406 112.09375 37.988281 112.058594 38.140625 L 110.808594 43.804688 C 110.726562 44.191406 110.683594 44.53125 110.683594 44.828125 C 110.683594 45.46875 110.84375 45.953125 111.164062 46.292969 C 111.492188 46.628906 111.960938 46.796875 112.574219 46.796875 C 113.390625 46.796875 114.453125 46.273438 115.757812 45.230469 Z M 117.511719 36.789062 "/>
<path style=" stroke:none;fill-rule:nonzero;fill:rgb(0%,0%,0%);fill-opacity:1;" d="M 45.890625 1.105469 C 47.441406 1.152344 48.9375 1.175781 50.371094 1.175781 C 50.722656 1.175781 51.375 1.148438 52.324219 1.089844 C 53.289062 1.03125 53.960938 1 54.335938 1 C 56.816406 1 58.683594 1.453125 59.941406 2.355469 C 61.210938 3.261719 61.84375 4.492188 61.84375 6.042969 C 61.84375 9.484375 59.917969 11.636719 56.0625 12.492188 C 59.246094 13.363281 60.839844 15.171875 60.839844 17.921875 C 60.839844 20.472656 59.851562 22.441406 57.878906 23.828125 C 55.917969 25.203125 53.3125 25.890625 50.070312 25.890625 C 49.480469 25.890625 48.816406 25.871094 48.078125 25.835938 C 47.347656 25.800781 46.5625 25.785156 45.714844 25.785156 C 44.292969 25.785156 42.855469 25.800781 41.398438 25.835938 L 41.46875 25.078125 L 43.671875 24.425781 C 43.988281 24.332031 44.1875 24.152344 44.269531 23.878906 C 44.363281 23.410156 44.46875 22.886719 44.585938 22.3125 C 44.707031 21.722656 44.835938 21.078125 44.976562 20.371094 L 47.707031 6.078125 C 47.824219 5.476562 47.925781 4.9375 48.007812 4.453125 C 48.089844 3.972656 48.160156 3.539062 48.21875 3.152344 C 48.277344 2.855469 48.179688 2.65625 47.917969 2.550781 L 45.785156 1.863281 Z M 49.628906 13.410156 L 47.601562 24.25 C 48.226562 24.4375 49.070312 24.53125 50.140625 24.53125 C 52.398438 24.53125 54.113281 24.003906 55.289062 22.945312 C 56.472656 21.878906 57.066406 20.320312 57.066406 18.273438 C 57.066406 16.6875 56.605469 15.472656 55.675781 14.625 C 54.757812 13.769531 53.417969 13.339844 51.65625 13.339844 C 50.988281 13.339844 50.3125 13.363281 49.628906 13.410156 Z M 49.910156 12.050781 C 50.441406 12.074219 51.011719 12.085938 51.621094 12.085938 C 53.867188 12.085938 55.539062 11.625 56.644531 10.695312 C 57.761719 9.753906 58.320312 8.339844 58.320312 6.445312 C 58.320312 5.15625 57.898438 4.167969 57.050781 3.484375 C 56.214844 2.792969 54.976562 2.445312 53.332031 2.445312 C 52.8125 2.445312 52.273438 2.488281 51.710938 2.570312 Z M 49.910156 12.050781 "/>
<path style=" stroke:none;fill-rule:nonzero;fill:rgb(0%,0%,0%);fill-opacity:1;" d="M 77.445312 9.8125 L 80.601562 9.621094 L 77.957031 22.417969 C 77.863281 22.828125 77.816406 23.15625 77.816406 23.40625 C 77.816406 23.921875 77.996094 24.269531 78.363281 24.445312 C 78.738281 24.621094 79.410156 24.699219 80.371094 24.675781 L 80.320312 25.363281 C 78.816406 25.855469 77.691406 26.101562 76.953125 26.101562 C 76.269531 26.101562 75.730469 25.90625 75.332031 25.519531 C 74.929688 25.121094 74.730469 24.53125 74.730469 23.757812 C 74.730469 23.546875 74.738281 23.328125 74.75 23.105469 C 72.5625 25.148438 70.640625 26.171875 68.984375 26.171875 C 67.65625 26.171875 66.632812 25.773438 65.917969 24.972656 C 65.199219 24.175781 64.84375 23.0625 64.84375 21.640625 C 64.84375 21.007812 64.917969 20.324219 65.070312 19.597656 L 66.535156 12.527344 C 66.570312 12.328125 66.597656 12.160156 66.621094 12.015625 C 66.65625 11.863281 66.675781 11.730469 66.675781 11.613281 C 66.675781 11.316406 66.535156 11.101562 66.253906 10.960938 C 65.96875 10.820312 65.277344 10.75 64.171875 10.75 L 64.242188 10.078125 C 65.816406 9.539062 67.070312 9.265625 67.996094 9.265625 C 68.597656 9.265625 69.0625 9.410156 69.390625 9.691406 C 69.730469 9.960938 69.902344 10.390625 69.902344 10.976562 C 69.902344 11.246094 69.878906 11.488281 69.832031 11.699219 L 68.085938 19.613281 C 67.96875 20.15625 67.910156 20.632812 67.910156 21.042969 C 67.910156 21.9375 68.132812 22.617188 68.578125 23.085938 C 69.039062 23.558594 69.695312 23.792969 70.554688 23.792969 C 71.691406 23.792969 73.175781 23.0625 74.996094 21.605469 Z M 77.445312 9.8125 "/>
<path style=" stroke:none;fill-rule:nonzero;fill:rgb(0%,0%,0%);fill-opacity:1;" d="M 87.316406 25.695312 L 84.144531 25.871094 L 86.894531 12.527344 C 86.929688 12.328125 86.960938 12.160156 86.984375 12.015625 C 87.015625 11.863281 87.035156 11.730469 87.035156 11.613281 C 87.035156 11.292969 86.898438 11.078125 86.628906 10.960938 C 86.335938 10.820312 85.640625 10.75 84.550781 10.75 L 84.601562 10.078125 C 86.1875 9.539062 87.441406 9.265625 88.359375 9.265625 C 88.957031 9.265625 89.421875 9.410156 89.75 9.691406 C 90.089844 9.960938 90.261719 10.390625 90.261719 10.976562 C 90.261719 11.246094 90.238281 11.488281 90.191406 11.699219 L 89.203125 16.460938 L 96.464844 16.460938 L 97.875 9.777344 L 101.03125 9.585938 L 98.335938 22.578125 C 98.277344 22.824219 98.242188 23.023438 98.230469 23.175781 C 98.21875 23.328125 98.210938 23.445312 98.210938 23.527344 C 98.210938 24 98.40625 24.308594 98.792969 24.460938 C 99.191406 24.605469 99.851562 24.675781 100.765625 24.675781 L 100.714844 25.363281 C 99.234375 25.855469 98.046875 26.101562 97.152344 26.101562 C 96.449219 26.101562 95.914062 25.9375 95.550781 25.609375 C 95.183594 25.265625 95.003906 24.746094 95.003906 24.039062 C 95.003906 23.875 95.015625 23.675781 95.039062 23.441406 C 95.0625 23.207031 95.121094 22.863281 95.214844 22.417969 L 96.167969 17.90625 L 88.902344 17.90625 Z M 87.316406 25.695312 "/>
<path style=" stroke:none;fill-rule:nonzero;fill:rgb(0%,0%,0%);fill-opacity:1;" d="M 119.804688 9.390625 C 119.652344 9.929688 119.464844 10.640625 119.242188 11.523438 C 119.019531 12.40625 118.605469 14.304688 118.007812 17.21875 L 116.898438 22.71875 C 116.847656 22.953125 116.824219 23.179688 116.824219 23.40625 C 116.824219 23.910156 117.007812 24.257812 117.371094 24.445312 C 117.75 24.621094 118.417969 24.699219 119.382812 24.675781 L 119.328125 25.363281 C 117.800781 25.855469 116.671875 26.101562 115.945312 26.101562 C 115.273438 26.101562 114.734375 25.902344 114.324219 25.503906 C 113.921875 25.101562 113.722656 24.519531 113.722656 23.757812 C 113.722656 23.640625 113.730469 23.453125 113.742188 23.191406 C 112.566406 24.226562 111.5625 24.984375 110.726562 25.46875 C 109.890625 25.9375 109.304688 26.171875 108.964844 26.171875 C 107.460938 26.171875 106.273438 25.597656 105.402344 24.445312 C 104.535156 23.28125 104.097656 21.84375 104.097656 20.125 C 104.097656 17.058594 105.023438 14.480469 106.867188 12.386719 C 108.710938 10.285156 111.042969 9.230469 113.863281 9.230469 C 114.945312 9.230469 116.183594 9.449219 117.585938 9.882812 C 118.160156 9.753906 118.835938 9.542969 119.613281 9.25 Z M 116.121094 11.347656 C 115.261719 10.855469 114.421875 10.605469 113.601562 10.605469 C 111.871094 10.605469 110.410156 11.511719 109.210938 13.320312 C 108.011719 15.132812 107.414062 17.128906 107.414062 19.316406 C 107.414062 20.574219 107.640625 21.636719 108.101562 22.507812 C 108.570312 23.375 109.226562 23.808594 110.074219 23.808594 C 110.34375 23.808594 110.808594 23.652344 111.46875 23.335938 C 112.125 23.015625 112.964844 22.476562 113.988281 21.710938 Z M 116.121094 11.347656 "/>
<path style="fill-rule:evenodd;fill:rgb(5.490196%,48.235294%,20%);fill-opacity:1;stroke-width:0.462873;stroke-linecap:butt;stroke-linejoin:miter;stroke:rgb(5.490196%,48.235294%,20%);stroke-opacity:1;stroke-miterlimit:4;" d="M 41.867188 34.03125 C 42.578125 32.8125 44.851562 30.3125 48.265625 30.070312 C 47.757812 27.9375 47.414062 22.265625 50.09375 16.65625 C 52.773438 11.046875 55.476562 7.820312 56.492188 6.90625 L 54.359375 3.859375 C 52.9375 5.078125 49.96875 7.882812 49.484375 9.34375 C 47.757812 9.445312 43.875 9.828125 42.171875 10.5625 C 40.460938 11.296875 36.78125 13.304688 35.15625 14.21875 C 33.226562 10.15625 26.992188 2.515625 17.476562 4.46875 C 17.375 5.890625 17.476562 9.039062 18.695312 10.257812 C 15.953125 11.070312 9.734375 13.429688 6.8125 16.351562 C 3.882812 19.28125 1.726562 21.640625 1.015625 22.453125 C 2.648438 24.179688 7.054688 27.9375 11.6875 29.15625 C 10.570312 30.273438 8.09375 33.726562 7.117188 38.601562 C 6.140625 43.484375 6.914062 48.765625 7.421875 50.796875 L 12.90625 50.796875 C 13.921875 49.273438 16.867188 46.226562 20.523438 46.226562 C 20.015625 43.992188 19.914062 38.484375 23.578125 34.335938 C 27.234375 30.195312 33.023438 29.765625 35.765625 30.375 C 37.59375 30.679688 41.132812 32.570312 41.867188 34.03125 Z M 38.507812 16.960938 C 40.039062 15.84375 43.875 13.546875 47.046875 13.304688 C 46.335938 14.828125 44.976562 18.242188 45.21875 19.703125 C 43.796875 18.789062 40.460938 16.960938 38.507812 16.960938 Z M 38.507812 16.960938 " transform="matrix(0.5,0,0,0.5,0,0)"/>
<path style=" stroke:none;fill-rule:nonzero;fill:rgb(67.843137%,5.098039%,15.294118%);fill-opacity:1;" d="M 34.34375 13.359375 C 34.34375 15.800781 32.363281 17.777344 29.925781 17.777344 C 27.484375 17.777344 25.503906 15.800781 25.503906 13.359375 C 25.503906 10.917969 27.484375 8.9375 29.925781 8.9375 C 32.363281 8.9375 34.34375 10.917969 34.34375 13.359375 Z M 34.34375 13.359375 "/>
<path style=" stroke:none;fill-rule:nonzero;fill:rgb(67.843137%,5.098039%,15.294118%);fill-opacity:1;" d="M 30.597656 19.300781 C 30.457031 19.734375 30.382812 20.195312 30.382812 20.675781 C 30.382812 23.113281 32.359375 25.09375 34.800781 25.09375 C 37.242188 25.09375 39.222656 23.113281 39.222656 20.675781 C 39.222656 18.234375 37.242188 16.253906 34.800781 16.253906 C 34.78125 16.253906 34.757812 16.253906 34.738281 16.253906 C 34.164062 18.003906 32.53125 19.273438 30.597656 19.300781 Z M 30.597656 19.300781 "/>
<path style=" stroke:none;fill-rule:nonzero;fill:rgb(67.843137%,5.098039%,15.294118%);fill-opacity:1;" d="M 28.996094 19.5625 C 27.3125 19.328125 25.929688 18.136719 25.417969 16.558594 C 25.394531 16.558594 25.375 16.558594 25.351562 16.558594 C 22.910156 16.558594 20.933594 18.539062 20.933594 20.980469 C 20.933594 23.417969 22.910156 25.398438 25.351562 25.398438 C 27.152344 25.398438 28.699219 24.324219 29.390625 22.777344 C 29.050781 22.152344 28.855469 21.4375 28.855469 20.675781 C 28.855469 20.289062 28.90625 19.917969 28.996094 19.5625 Z M 28.996094 19.5625 "/>
<path style=" stroke:none;fill-rule:nonzero;fill:rgb(67.843137%,5.098039%,15.294118%);fill-opacity:1;" d="M 16.207031 16.558594 C 17.769531 16.558594 19.140625 17.371094 19.929688 18.59375 C 19.597656 19.210938 19.40625 19.921875 19.40625 20.675781 C 19.40625 21.511719 19.640625 22.292969 20.046875 22.960938 C 18.371094 23.007812 16.925781 23.988281 16.21875 25.398438 C 16.214844 25.398438 16.210938 25.398438 16.207031 25.398438 C 13.765625 25.398438 11.789062 23.417969 11.789062 20.980469 C 11.789062 18.539062 13.765625 16.558594 16.207031 16.558594 Z M 16.207031 16.558594 "/>
<path style=" stroke:none;fill-rule:nonzero;fill:rgb(67.843137%,5.098039%,15.294118%);fill-opacity:1;" d="M 15.304688 26.921875 C 15.300781 26.921875 15.296875 26.921875 15.292969 26.921875 C 13.566406 26.921875 12.074219 25.933594 11.347656 24.492188 C 9.039062 24.644531 7.214844 26.558594 7.214844 28.90625 C 7.214844 31.34375 9.195312 33.324219 11.636719 33.324219 C 13.257812 33.324219 14.675781 32.449219 15.445312 31.144531 C 15.058594 30.488281 14.835938 29.722656 14.835938 28.902344 C 14.835938 28.191406 15.003906 27.519531 15.304688 26.921875 Z M 15.304688 26.921875 "/>
<path style=" stroke:none;fill-rule:nonzero;fill:rgb(67.843137%,5.098039%,15.294118%);fill-opacity:1;" d="M 24.613281 26.921875 C 22.945312 26.875 21.503906 25.898438 20.792969 24.492188 C 18.488281 24.644531 16.664062 26.558594 16.664062 28.902344 C 16.664062 31.34375 18.644531 33.324219 21.085938 33.324219 C 22.773438 33.324219 24.238281 32.378906 24.984375 30.984375 C 24.542969 30.296875 24.285156 29.476562 24.285156 28.597656 C 24.285156 28.003906 24.402344 27.4375 24.613281 26.921875 Z M 24.613281 26.921875 "/>
<path style=" stroke:none;fill-rule:nonzero;fill:rgb(67.843137%,5.098039%,15.294118%);fill-opacity:1;" d="M 30.40625 24.183594 C 30.390625 24.183594 30.371094 24.183594 30.355469 24.179688 C 29.695312 25.789062 28.113281 26.921875 26.265625 26.921875 C 26.222656 26.921875 26.179688 26.921875 26.140625 26.921875 C 25.925781 27.4375 25.808594 28.003906 25.808594 28.597656 C 25.808594 31.039062 27.789062 33.019531 30.230469 33.019531 C 32.667969 33.019531 34.648438 31.039062 34.648438 28.597656 C 34.648438 28.003906 34.53125 27.4375 34.316406 26.917969 C 32.546875 26.847656 31.046875 25.738281 30.40625 24.183594 Z M 30.40625 24.183594 "/>
<path style=" stroke:none;fill-rule:nonzero;fill:rgb(67.843137%,5.098039%,15.294118%);fill-opacity:1;" d="M 26.140625 31.800781 C 26.121094 31.800781 26.105469 31.800781 26.089844 31.800781 C 25.429688 33.410156 23.84375 34.542969 22 34.542969 C 21.957031 34.542969 21.914062 34.539062 21.871094 34.539062 C 21.660156 35.058594 21.542969 35.625 21.542969 36.21875 C 21.542969 38.660156 23.519531 40.636719 25.960938 40.636719 C 28.402344 40.636719 30.382812 38.660156 30.382812 36.21875 C 30.382812 35.621094 30.261719 35.054688 30.050781 34.539062 C 28.28125 34.46875 26.777344 33.355469 26.140625 31.800781 Z M 26.140625 31.800781 "/>
<path style=" stroke:none;fill-rule:nonzero;fill:rgb(67.843137%,5.098039%,15.294118%);fill-opacity:1;" d="M 20.347656 34.84375 C 20.289062 34.847656 20.230469 34.847656 20.167969 34.847656 C 18.433594 34.847656 16.929688 33.84375 16.207031 32.386719 C 15.507812 33.796875 14.085938 34.777344 12.421875 34.84375 C 12.210938 35.363281 12.09375 35.929688 12.09375 36.523438 C 12.09375 38.964844 14.070312 40.945312 16.511719 40.945312 C 18.25 40.945312 19.753906 39.941406 20.476562 38.484375 C 20.183594 37.894531 20.015625 37.226562 20.015625 36.523438 C 20.015625 35.929688 20.136719 35.363281 20.347656 34.84375 Z M 20.347656 34.84375 "/>
<path style=" stroke:none;fill-rule:nonzero;fill:rgb(67.843137%,5.098039%,15.294118%);fill-opacity:1;" d="M 21.464844 39.847656 C 20.773438 41.390625 19.226562 42.46875 17.425781 42.46875 C 17.296875 42.46875 17.164062 42.460938 17.039062 42.453125 C 16.992188 42.703125 16.96875 42.964844 16.96875 43.226562 C 16.96875 45.667969 18.949219 47.648438 21.390625 47.648438 C 23.828125 47.648438 25.808594 45.667969 25.808594 43.226562 C 25.808594 42.855469 25.761719 42.496094 25.675781 42.152344 C 25.570312 42.160156 25.460938 42.164062 25.351562 42.164062 C 23.671875 42.164062 22.210938 41.226562 21.464844 39.847656 Z M 21.464844 39.847656 "/>
</g>
</svg>
