<svg width="18" height="18" viewBox="0 0 18 18" fill="none" xmlns="http://www.w3.org/2000/svg">
<g clip-path="url(#clip0_230_8092)">
<path d="M1.55991 4.64062H16.1175C16.4268 4.64062 16.6774 4.3888 16.6774 4.07812V2.67188C16.6774 2.3612 16.4268 2.10938 16.1175 2.10938H1.55991C1.25066 2.10938 1 2.3612 1 2.67188V4.07812C1 4.3888 1.25066 4.64062 1.55991 4.64062ZM1.55991 10.2656H16.1175C16.4268 10.2656 16.6774 10.0138 16.6774 9.70312V8.29688C16.6774 7.9862 16.4268 7.73438 16.1175 7.73438H1.55991C1.25066 7.73438 1 7.9862 1 8.29688V9.70312C1 10.0138 1.25066 10.2656 1.55991 10.2656ZM1.55991 15.8906H16.1175C16.4268 15.8906 16.6774 15.6388 16.6774 15.3281V13.9219C16.6774 13.6112 16.4268 13.3594 16.1175 13.3594H1.55991C1.25066 13.3594 1 13.6112 1 13.9219V15.3281C1 15.6388 1.25066 15.8906 1.55991 15.8906Z" fill="#B1BAD1"/>
</g>
<defs>
<clipPath id="clip0_230_8092">
<rect width="15.6774" height="18" fill="white" transform="translate(1)"/>
</clipPath>
</defs>
</svg>
