<svg width="18" height="17" viewBox="0 0 18 17" fill="none" xmlns="http://www.w3.org/2000/svg">
<g clip-path="url(#clip0_2333_8265)">
<path d="M15.7724 10.0568H6.61163L6.81616 11.0625H15.2042C15.6855 11.0625 16.0422 11.5119 15.9356 11.9839L15.7632 12.7469C16.3472 13.032 16.75 13.6342 16.75 14.331C16.75 15.3116 15.9525 16.1049 14.9742 16.0907C14.0423 16.0772 13.2758 15.3166 13.2507 14.3796C13.2369 13.8677 13.4408 13.4038 13.7758 13.0738H7.22425C7.54853 13.3933 7.75 13.8384 7.75 14.331C7.75 15.3308 6.921 16.1359 5.91656 16.089C5.02469 16.0473 4.29934 15.3226 4.25247 14.4259C4.21628 13.7334 4.57859 13.1231 5.12906 12.8047L2.93384 2.01136H0.75C0.335781 2.01136 0 1.67367 0 1.2571V0.754261C0 0.337689 0.335781 0 0.75 0H3.95403C4.31031 0 4.61741 0.25208 4.68881 0.603095L4.97525 2.01136H17.2497C17.731 2.01136 18.0877 2.46081 17.981 2.93279L16.5037 9.46972C16.4262 9.81313 16.1226 10.0568 15.7724 10.0568ZM12.5947 6.03409H11.25V4.14844C11.25 3.94017 11.0821 3.77131 10.875 3.77131H10.125C9.91791 3.77131 9.75 3.94017 9.75 4.14844V6.03409H8.40534C8.07125 6.03409 7.90394 6.44032 8.14019 6.67788L10.2348 8.78444C10.3813 8.93171 10.6187 8.93171 10.7652 8.78444L12.8598 6.67788C13.0961 6.44032 12.9288 6.03409 12.5947 6.03409Z" fill="#B1BAD1"/>
</g>
<defs>
<clipPath id="clip0_2333_8265">
<rect width="18" height="16.0909" fill="white"/>
</clipPath>
</defs>
</svg>
