<svg width="12" height="12" viewBox="0 0 12 12" fill="none" xmlns="http://www.w3.org/2000/svg">
<path d="M0.808008 5.60171L5.36426 1.0478C5.58457 0.82749 5.94082 0.82749 6.15879 1.0478L6.69082 1.57983C6.91113 1.80015 6.91113 2.15405 6.69082 2.37437L3.08145 6.00015L6.69082 9.62593C6.90879 9.84624 6.90879 10.2001 6.69082 10.4205L6.15879 10.9525C5.93848 11.1728 5.58223 11.1728 5.36426 10.9525L0.808008 6.39858C0.590039 6.17827 0.590039 5.82202 0.808008 5.60171ZM5.30801 6.39858L9.86191 10.9525C10.0822 11.1728 10.4385 11.1728 10.6564 10.9525L11.1885 10.4205C11.4088 10.2001 11.4088 9.84624 11.1885 9.62593L7.58145 6.00015L11.1908 2.37437C11.4088 2.15405 11.4088 1.80015 11.1908 1.57983L10.6588 1.0478C10.4385 0.82749 10.0822 0.82749 9.86426 1.0478L5.30801 5.60171C5.09004 5.82202 5.09004 6.17827 5.30801 6.39858Z" fill="#B1BAD1"/>
</svg>
