<svg width="18" height="18" viewBox="0 0 18 18" fill="none" xmlns="http://www.w3.org/2000/svg">
<g clip-path="url(#clip0_230_7630)">
<path d="M10.2982 8.99997L14.0852 5.21293C14.3042 4.99391 14.3042 4.63848 14.0852 4.41911L13.2052 3.53915C12.9862 3.32012 12.6308 3.32012 12.4114 3.53915L8.62474 7.32653L4.83771 3.5395C4.61868 3.32047 4.26325 3.32047 4.04388 3.5395L3.16427 4.41911C2.94524 4.63813 2.94524 4.99356 3.16427 5.21293L6.9513 8.99997L3.16427 12.787C2.94524 13.006 2.94524 13.3615 3.16427 13.5808L4.04423 14.4608C4.26325 14.6798 4.61868 14.6798 4.83806 14.4608L8.62474 10.6734L12.4118 14.4604C12.6308 14.6795 12.9862 14.6795 13.2056 14.4604L14.0856 13.5805C14.3046 13.3615 14.3046 13.006 14.0856 12.7866L10.2982 8.99997Z" fill="currentColor"/>
</g>
<defs>
<clipPath id="clip0_230_7630">
<rect width="11.25" height="18" fill="white" transform="translate(3)"/>
</clipPath>
</defs>
</svg>
