<svg width="18" height="18" viewBox="0 0 18 18" fill="none" xmlns="http://www.w3.org/2000/svg">
<path d="M16.5 2H1.5C0.671875 2 0 2.67188 0 3.5V14.5C0 15.3281 0.671875 16 1.5 16H16.5C17.3281 16 18 15.3281 18 14.5V3.5C18 2.67188 17.3281 2 16.5 2ZM1.5 3H16.5C16.775 3 17 3.225 17 3.5V5H1V3.5C1 3.225 1.225 3 1.5 3ZM16.5 15H1.5C1.225 15 1 14.775 1 14.5V8H17V14.5C17 14.775 16.775 15 16.5 15ZM6 12.375V12.625C6 12.8313 5.83125 13 5.625 13H3.375C3.16875 13 3 12.8313 3 12.625V12.375C3 12.1687 3.16875 12 3.375 12H5.625C5.83125 12 6 12.1687 6 12.375ZM12 12.375V12.625C12 12.8313 11.8313 13 11.625 13H7.375C7.16875 13 7 12.8313 7 12.625V12.375C7 12.1687 7.16875 12 7.375 12H11.625C11.8313 12 12 12.1687 12 12.375Z" fill="#B1BAD1"/>
</svg>
