<svg width="21" height="18" viewBox="0 0 21 18" fill="none" xmlns="http://www.w3.org/2000/svg">
<g clip-path="url(#clip0_230_1094)">
<path d="M10.0786 13.7808L11.2239 15.417C10.8585 15.4515 10.4916 15.4688 10.1245 15.4689C5.91246 15.4689 2.21546 13.2207 0.233177 9.85684C0.080194 9.59724 -0.000488281 9.30142 -0.000488281 9.0001C-0.000488281 8.69878 0.080194 8.40295 0.233177 8.14336C1.07774 6.71018 2.23402 5.47939 3.60902 4.53854L5.61563 7.40515C5.43947 7.90394 5.34328 8.44067 5.34328 9.00012C5.34328 11.6276 7.4574 13.7561 10.0786 13.7808ZM20.0159 9.85684C18.9026 11.746 17.2474 13.2832 15.2636 14.2681L15.264 14.2686L16.722 16.3498C16.9891 16.7316 16.8963 17.2576 16.5145 17.5248L16.0536 17.8475C15.6718 18.1147 15.1459 18.0219 14.8787 17.6401L3.52711 1.65035C3.25992 1.26855 3.35273 0.742616 3.73453 0.475428L4.19543 0.152694C4.57722 -0.114494 5.10316 -0.0216811 5.37035 0.360116L7.16465 2.91306C8.10937 2.66412 9.10166 2.53137 10.1245 2.53137C14.3366 2.53137 18.0336 4.77957 20.0159 8.14339C20.1688 8.40299 20.2495 8.6988 20.2495 9.00012C20.2495 9.30143 20.1688 9.59724 20.0159 9.85684ZM14.9058 9.00012C14.9058 6.35728 12.7669 4.21887 10.1245 4.21887C9.49386 4.21887 8.89209 4.34096 8.34109 4.56241L9.01957 5.51367C9.92903 5.22641 10.9547 5.297 11.8461 5.77418H11.8451C11.0136 5.77418 10.3397 6.44812 10.3397 7.27957C10.3397 8.11017 11.0128 8.78496 11.8451 8.78496C12.6765 8.78496 13.3505 8.11101 13.3505 7.27957V7.27851C13.9995 8.49105 13.9239 10.0177 13.0604 11.1791V11.1795L13.7394 12.1308C14.4662 11.2923 14.9058 10.198 14.9058 9.00012ZM9.21096 12.5413L6.48529 8.6475C6.30902 10.4892 7.51587 12.1053 9.21096 12.5413Z" fill="#B1BAD1"/>
</g>
<defs>
<clipPath id="clip0_230_1094">
<rect width="20.25" height="18" fill="white"/>
</clipPath>
</defs>
</svg>
