<svg width="21" height="18" viewBox="0 0 21 18" fill="none" xmlns="http://www.w3.org/2000/svg">
<g clip-path="url(#clip0_230_638)">
<path d="M20.0164 8.14328C18.0341 4.77946 14.3371 2.53125 10.125 2.53125C5.91119 2.53125 2.215 4.78104 0.233665 8.14328C0.0806823 8.40287 0 8.6987 0 9.00002C0 9.30134 0.0806823 9.59716 0.233665 9.85676C2.21595 13.2205 5.91295 15.4688 10.125 15.4688C14.3388 15.4688 18.035 13.219 20.0164 9.85672C20.1694 9.59713 20.25 9.30131 20.25 9C20.25 8.69869 20.1694 8.40287 20.0164 8.14328ZM10.125 13.7812C7.4826 13.7812 5.34377 11.6428 5.34377 9C5.34377 6.35759 7.48218 4.21875 10.125 4.21875C12.7674 4.21875 14.9063 6.35716 14.9063 9C14.9063 11.6424 12.7679 13.7812 10.125 13.7812ZM13.7813 9C13.7813 11.0193 12.1443 12.6562 10.125 12.6562C8.10571 12.6562 6.46877 11.0193 6.46877 9C6.46877 8.37745 6.62454 7.79136 6.89894 7.27829L6.8989 7.27942C6.8989 8.1109 7.57295 8.78491 8.40444 8.78491C9.23592 8.78491 9.90997 8.11086 9.90997 7.27942C9.90997 6.44794 9.23592 5.77389 8.40444 5.77389L8.40331 5.77392C8.91638 5.49953 9.50247 5.34375 10.125 5.34375C12.1443 5.34375 13.7813 6.9807 13.7813 9Z" fill="#B1BAD1"/>
</g>
<defs>
<clipPath id="clip0_230_638">
<rect width="20.25" height="18" fill="white"/>
</clipPath>
</defs>
</svg>
