<svg width="24" height="24" viewBox="0 0 24 24" fill="none" xmlns="http://www.w3.org/2000/svg">
<path d="M12.0001 0.0498657C5.37268 0.0498657 0 5.42255 0 12.0499C0 17.9939 4.32626 22.9166 9.9987 23.8698V14.5535H7.10393V11.2009H9.9987V8.72887C9.9987 5.86059 11.7506 4.29754 14.3096 4.29754C15.5353 4.29754 16.5886 4.38887 16.8944 4.42909V7.42721L15.1194 7.42807C13.728 7.42807 13.4598 8.08914 13.4598 9.05955V11.1992H16.7798L16.3468 14.5518H13.4598V23.9499C19.397 23.2273 24 18.1793 24 12.0465C24 5.42255 18.6273 0.0498657 12.0001 0.0498657Z" fill="currentColor"/>
</svg>
