<svg width="18" height="18" viewBox="0 0 18 18" fill="none" xmlns="http://www.w3.org/2000/svg">
    <path d="M16.2532 2.2043C14.3371 0.573046 11.4719 0.843749 9.69301 2.67891L9.00043 3.39609L8.30785 2.68242C6.87348 1.19883 3.98012 0.305858 1.7477 2.2043C-0.460116 4.08867 -0.576131 7.4707 1.39965 9.50976L8.20238 16.534C8.42035 16.759 8.70863 16.875 8.99692 16.875C9.2852 16.875 9.57348 16.7625 9.79145 16.534L16.5942 9.50976C18.577 7.4707 18.461 4.08867 16.2532 2.2043ZM15.7926 8.7293L9.01449 15.7535L2.20824 8.7293C0.858244 7.33711 0.576994 4.68281 2.47895 3.06211C4.40551 1.4168 6.66957 2.60859 7.49926 3.4664L9.00043 5.0168L10.5016 3.4664C11.3172 2.62265 13.6024 1.42734 15.5219 3.06211C17.4204 4.6793 17.1426 7.33359 15.7926 8.7293Z" fill="currentColor"/>
</svg>
