<svg width="18" height="18" viewBox="0 0 18 18" fill="none" xmlns="http://www.w3.org/2000/svg">
<path d="M11.8125 1.125C14.6084 1.125 16.875 3.39156 16.875 6.1875C16.875 8.98344 14.6084 11.25 11.8125 11.25C11.1457 11.25 10.509 11.1208 9.92598 10.8865L8.4375 12.375H6.75V14.625H4.5V16.875H1.125V14.0625L7.11348 8.07402C6.8792 7.49095 6.75 6.85434 6.75 6.1875C6.75 3.39156 9.01656 1.125 11.8125 1.125ZM11.8125 0C8.39587 0 5.625 2.76922 5.625 6.1875C5.625 6.72564 5.69338 7.25456 5.82884 7.76767L0.247113 13.3494C0.0888998 13.5076 1.27537e-05 13.7222 0 13.946L0 17.1562C0 17.6222 0.377754 18 0.84375 18H4.78125C5.24725 18 5.625 17.6222 5.625 17.1562V15.75H7.03125C7.49725 15.75 7.875 15.3722 7.875 14.9062V13.5H8.55401C8.77778 13.5 8.99241 13.4111 9.15064 13.2529L10.2324 12.1712C10.7454 12.3066 11.2744 12.375 11.8125 12.375C15.2291 12.375 18 9.60578 18 6.1875C18 2.77087 15.2308 0 11.8125 0ZM13.5 3.79688C13.8877 3.79688 14.2031 4.1123 14.2031 4.5C14.2031 4.8877 13.8877 5.20312 13.5 5.20312C13.1123 5.20312 12.7969 4.8877 12.7969 4.5C12.7969 4.1123 13.1123 3.79688 13.5 3.79688ZM13.5 2.8125C12.568 2.8125 11.8125 3.56801 11.8125 4.5C11.8125 5.43199 12.568 6.1875 13.5 6.1875C14.432 6.1875 15.1875 5.43199 15.1875 4.5C15.1875 3.56801 14.432 2.8125 13.5 2.8125Z" fill="#B1BAD1"/>
</svg>
