<svg width="22" height="22" viewBox="0 0 22 22" fill="none" xmlns="http://www.w3.org/2000/svg">
<g clip-path="url(#clip0_1731_549)">
<path d="M15.5859 10.0833H6.41927C5.40675 10.0833 4.58594 10.9042 4.58594 11.9167V17.4167C4.58594 18.4292 5.40675 19.25 6.41927 19.25H15.5859C16.5985 19.25 17.4193 18.4292 17.4193 17.4167V11.9167C17.4193 10.9042 16.5985 10.0833 15.5859 10.0833Z" stroke="#B1BAD1" stroke-width="1.83333" stroke-linecap="round" stroke-linejoin="round"/>
<path d="M11.0026 15.5833C11.5089 15.5833 11.9193 15.1729 11.9193 14.6667C11.9193 14.1604 11.5089 13.75 11.0026 13.75C10.4963 13.75 10.0859 14.1604 10.0859 14.6667C10.0859 15.1729 10.4963 15.5833 11.0026 15.5833Z" stroke="#B1BAD1" stroke-width="1.83333" stroke-linecap="round" stroke-linejoin="round"/>
<path d="M7.33594 10.0833V6.41667C7.33594 5.44421 7.72225 4.51158 8.40988 3.82394C9.09751 3.13631 10.0301 2.75 11.0026 2.75C11.9751 2.75 12.9077 3.13631 13.5953 3.82394C14.283 4.51158 14.6693 5.44421 14.6693 6.41667V10.0833" stroke="#B1BAD1" stroke-width="1.83333" stroke-linecap="round" stroke-linejoin="round"/>
</g>
<defs>
<clipPath id="clip0_1731_549">
<rect width="22" height="22" fill="white"/>
</clipPath>
</defs>
</svg>
