<svg width="18" height="18" viewBox="0 0 18 18" fill="none" xmlns="http://www.w3.org/2000/svg">
<g clip-path="url(#clip0_230_26)">
<path d="M8.99989 18C10.0789 18 11.0081 17.3482 11.4158 16.418H6.58398C6.99169 17.3482 7.92091 18 8.99989 18Z" fill="currentColor "/>
<path d="M14.4493 8.7139V7.55859C14.4493 5.10391 12.8176 3.0234 10.5821 2.34387V1.58203C10.5821 0.709699 9.87237 0 9.00004 0C8.12771 0 7.41801 0.709699 7.41801 1.58203V2.34387C5.18242 3.0234 3.55082 5.10388 3.55082 7.55859V8.7139C3.55082 10.8701 2.72894 12.9146 1.23659 14.4709C1.09034 14.6235 1.04924 14.8485 1.13214 15.0428C1.21504 15.2372 1.40594 15.3633 1.61723 15.3633H16.3829C16.5941 15.3633 16.785 15.2372 16.8679 15.0428C16.9508 14.8485 16.9097 14.6235 16.7635 14.4709C15.2711 12.9146 14.4493 10.8701 14.4493 8.7139ZM9.52738 2.13497C9.35382 2.11823 9.17793 2.10938 9.00004 2.10938C8.82215 2.10938 8.64626 2.11823 8.4727 2.13497V1.58203C8.4727 1.29125 8.70926 1.05469 9.00004 1.05469C9.29082 1.05469 9.52738 1.29125 9.52738 1.58203V2.13497Z" fill="currentColor"/>
<path d="M15.8557 7.55863C15.8557 7.84987 16.0918 8.08598 16.3831 8.08598C16.6743 8.08598 16.9104 7.84987 16.9104 7.55863C16.9104 5.44574 16.0876 3.45931 14.5936 1.96527C14.3877 1.75936 14.0538 1.75933 13.8478 1.96527C13.6419 2.17122 13.6419 2.5051 13.8478 2.71104C15.1427 4.00588 15.8557 5.72745 15.8557 7.55863Z" fill="currentColor"/>
<path d="M1.61719 8.08611C1.90842 8.08611 2.14453 7.85 2.14453 7.55876C2.14453 5.72761 2.85764 4.00605 4.15245 2.71121C4.35839 2.50526 4.35839 2.17138 4.15245 1.96544C3.94654 1.75949 3.61262 1.75949 3.40668 1.96544C1.91264 3.45947 1.08984 5.44587 1.08984 7.55876C1.08984 7.85 1.32595 8.08611 1.61719 8.08611Z" fill="currentColor"/>
</g>
<defs>
<clipPath id="clip0_230_26">
<rect width="18" height="18" fill="white"/>
</clipPath>
</defs>
</svg>
