<svg width="18" height="18" viewBox="0 0 18 18" fill="none" xmlns="http://www.w3.org/2000/svg">
<path d="M13.5 8.78906V9.21094C13.5 9.44297 13.3102 9.63281 13.0781 9.63281H9.63281V13.0781C9.63281 13.3102 9.44297 13.5 9.21094 13.5H8.78906C8.55703 13.5 8.36719 13.3102 8.36719 13.0781V9.63281H4.92188C4.68984 9.63281 4.5 9.44297 4.5 9.21094V8.78906C4.5 8.55703 4.68984 8.36719 4.92188 8.36719H8.36719V4.92188C8.36719 4.68984 8.55703 4.5 8.78906 4.5H9.21094C9.44297 4.5 9.63281 4.68984 9.63281 4.92188V8.36719H13.0781C13.3102 8.36719 13.5 8.55703 13.5 8.78906ZM17.7188 9C17.7188 13.8164 13.8164 17.7188 9 17.7188C4.18359 17.7188 0.28125 13.8164 0.28125 9C0.28125 4.18359 4.18359 0.28125 9 0.28125C13.8164 0.28125 17.7188 4.18359 17.7188 9ZM16.5938 9C16.5938 4.78477 13.173 1.40625 9 1.40625C4.78477 1.40625 1.40625 4.82695 1.40625 9C1.40625 13.2152 4.82695 16.5938 9 16.5938C13.2152 16.5938 16.5938 13.173 16.5938 9Z" fill="#B1BAD1"/>
</svg>
