<svg width="18" height="18" viewBox="0 0 18 18" fill="none" xmlns="http://www.w3.org/2000/svg">
<g clip-path="url(#clip0_230_3055)">
<path d="M13.375 11.25C12.5802 11.25 11.8497 11.5249 11.273 11.9846L7.66998 9.73269C7.77668 9.25005 7.77668 8.74992 7.66998 8.26727L11.273 6.01538C11.8497 6.47511 12.5802 6.75 13.375 6.75C15.2389 6.75 16.75 5.23895 16.75 3.375C16.75 1.51105 15.2389 0 13.375 0C11.5111 0 10 1.51105 10 3.375C10 3.62665 10.0278 3.87176 10.08 4.10769L6.47699 6.35959C5.90032 5.89989 5.16981 5.625 4.375 5.625C2.51105 5.625 1 7.13605 1 9C1 10.8639 2.51105 12.375 4.375 12.375C5.16981 12.375 5.90032 12.1001 6.47699 11.6404L10.08 13.8923C10.0268 14.1329 9.99993 14.3786 10 14.625C10 16.4889 11.5111 18 13.375 18C15.2389 18 16.75 16.4889 16.75 14.625C16.75 12.7611 15.2389 11.25 13.375 11.25Z" fill="#B1BAD1"/>
</g>
<defs>
<clipPath id="clip0_230_3055">
<rect width="15.75" height="18" fill="white" transform="translate(1)"/>
</clipPath>
</defs>
</svg>
