<svg width="18" height="18" viewBox="0 0 18 18" fill="none" xmlns="http://www.w3.org/2000/svg">
<g clip-path="url(#clip0_230_10243)">
<path d="M1.6875 2.25H6.32812C6.56016 2.25 6.75 2.43984 6.75 2.67188V2.95312C6.75 3.18516 6.56016 3.375 6.32812 3.375H1.6875C1.37812 3.375 1.125 3.62812 1.125 3.9375V14.0625C1.125 14.3719 1.37812 14.625 1.6875 14.625H6.32812C6.56016 14.625 6.75 14.8148 6.75 15.0469V15.3281C6.75 15.5602 6.56016 15.75 6.32812 15.75H1.6875C0.755859 15.75 0 14.9941 0 14.0625V3.9375C0 3.00586 0.755859 2.25 1.6875 2.25ZM11.4961 2.93555L11.2465 3.18516C11.0813 3.35039 11.0813 3.61758 11.2465 3.78281L15.8871 8.40234H6.04688C5.81484 8.40234 5.625 8.59219 5.625 8.82422V9.17578C5.625 9.40781 5.81484 9.59766 6.04688 9.59766H15.8871L11.25 14.2172C11.0848 14.3824 11.0848 14.6496 11.25 14.8148L11.4996 15.0645C11.6648 15.2297 11.932 15.2297 12.0973 15.0645L17.8805 9.29883C18.0457 9.13359 18.0457 8.86641 17.8805 8.70117L12.0938 2.93555C11.9285 2.77031 11.6613 2.77031 11.4961 2.93555Z" fill="#B1BAD1"/>
</g>
<defs>
<clipPath id="clip0_230_10243">
<rect width="18" height="18" fill="white"/>
</clipPath>
</defs>
</svg>
