<svg width="18" height="18" viewBox="0 0 18 18" fill="none" xmlns="http://www.w3.org/2000/svg">
<path d="M17.6092 8.19294C17.9635 7.84764 18.0886 7.34087 17.9358 6.86979C17.7826 6.3987 17.3836 6.06242 16.8934 5.99106L12.535 5.35778C12.3494 5.33074 12.189 5.21432 12.1061 5.046L10.1576 1.09674C9.93885 0.65305 9.4948 0.377319 8.99993 0.377319C8.50541 0.377319 8.06136 0.65305 7.84258 1.09674L5.89372 5.046C5.81082 5.21432 5.65007 5.33074 5.46444 5.35778L1.10609 5.99142C0.616265 6.06242 0.217266 6.3987 0.0640822 6.86979C-0.0887412 7.34087 0.0363289 7.84764 0.390634 8.19294L3.54406 11.2667C3.6785 11.3979 3.74013 11.5868 3.70842 11.7713L2.96412 16.112C2.8805 16.5997 3.07694 17.083 3.47738 17.3742C3.87746 17.6658 4.39828 17.7037 4.83693 17.4726L8.73465 15.4232C8.90081 15.336 9.09904 15.336 9.2652 15.4232L13.1633 17.4726C13.3536 17.5728 13.5598 17.6222 13.7648 17.6222C14.0312 17.6222 14.2965 17.539 14.5228 17.3742C14.9233 17.083 15.1197 16.5997 15.0361 16.112L14.2914 11.7717C14.2597 11.5868 14.3214 11.3983 14.4558 11.2671L17.6092 8.19294ZM13.5814 11.8935L14.3257 16.2338C14.3632 16.4522 14.2785 16.6609 14.099 16.7914C13.9191 16.9215 13.6953 16.9374 13.4988 16.835L9.60077 14.7852C9.41298 14.6868 9.20609 14.6371 8.99993 14.6371C8.79376 14.6371 8.58723 14.6868 8.39909 14.7856L4.50173 16.835C4.30457 16.9374 4.08074 16.9215 3.90125 16.7914C3.72175 16.6609 3.63741 16.4526 3.67454 16.2338L4.41883 11.8935C4.49055 11.4747 4.35179 11.0472 4.04758 10.7509L0.893798 7.6768C0.734847 7.52181 0.680782 7.30339 0.749625 7.09254C0.818107 6.88132 0.990033 6.73643 1.20954 6.70435L5.56753 6.07107C5.98815 6.01016 6.35183 5.74632 6.53961 5.36498L8.48847 1.41573C8.58651 1.21677 8.7779 1.09818 8.99957 1.09818C9.22159 1.09818 9.41262 1.21677 9.51102 1.41573L11.4599 5.36498C11.6477 5.74632 12.011 6.01016 12.4316 6.07107L16.79 6.70435C17.0095 6.73643 17.1814 6.88132 17.2499 7.09254C17.3183 7.30339 17.2646 7.52181 17.1057 7.6768L13.9523 10.7506C13.6481 11.0472 13.5093 11.4743 13.5814 11.8935Z" fill="white"/>
</svg>
