<svg width="24" height="24" viewBox="0 0 24 24" fill="none" xmlns="http://www.w3.org/2000/svg">
<g clip-path="url(#clip0_230_609)">
<path d="M0.423911 11.5717L5.95399 13.6357L8.09447 20.5195C8.23143 20.9604 8.77055 21.1233 9.12839 20.8308L12.211 18.3178C12.5341 18.0545 12.9943 18.0414 13.332 18.2865L18.8918 22.3231C19.2746 22.6013 19.817 22.3916 19.913 21.929L23.9858 2.33774C24.0906 1.83246 23.5942 1.41094 23.113 1.59702L0.417431 10.3523C-0.142649 10.5683 -0.137769 11.3613 0.423911 11.5717ZM7.74951 12.537L18.5574 5.88046C18.7516 5.76118 18.9514 6.02382 18.7846 6.17854L9.86503 14.4697C9.55151 14.7616 9.34927 15.1521 9.29199 15.5761L8.98815 17.8277C8.94791 18.1284 8.52559 18.1582 8.44263 17.8673L7.27407 13.7613C7.14023 13.2929 7.33527 12.7927 7.74951 12.537Z" fill="currentColor"/>
</g>
<defs>
<clipPath id="clip0_230_609">
<rect width="24" height="24" fill="white"/>
</clipPath>
</defs>
</svg>
