<svg width="18" height="18" viewBox="0 0 18 18" fill="none" xmlns="http://www.w3.org/2000/svg">
<g clip-path="url(#clip0_230_128)">
<path d="M8.99999 0C4.03737 0 0 4.03737 0 9C0 13.9626 4.03737 18 8.99999 18C13.9626 18 18.0001 13.9626 18.0001 9C18.0001 4.03737 13.9626 0 8.99999 0ZM16.0382 6.65857C15.8066 6.58592 15.5603 6.54658 15.305 6.54658C14.824 6.54658 14.3753 6.68627 13.9962 6.92639C13.4424 5.59703 12.373 4.5351 11.039 3.9902C11.2842 3.60842 11.4271 3.15501 11.4271 2.66852C11.4271 2.42041 11.3897 2.18101 11.3209 1.95513C13.5402 2.68815 15.2989 4.44219 16.0382 6.65857ZM6.62089 1.97421C6.55576 2.19454 6.52022 2.42746 6.52022 2.6686C6.52022 3.16214 6.66719 3.62172 6.91894 4.0069C5.59553 4.5605 4.53802 5.62552 3.99321 6.95345C3.60549 6.69664 3.14116 6.54658 2.64225 6.54658C2.40814 6.54658 2.18188 6.58022 1.96732 6.64171C2.70335 4.45263 4.43459 2.71649 6.62089 1.97421ZM1.96732 11.3583C2.18188 11.4198 2.40814 11.4534 2.64225 11.4534C3.14116 11.4534 3.60549 11.3034 3.99321 11.0465C4.53802 12.3745 5.59552 13.4395 6.91886 13.9931C6.66711 14.3783 6.52015 14.8379 6.52015 15.3314C6.52015 15.5725 6.55568 15.8055 6.62081 16.0258C4.43459 15.2835 2.70335 13.5474 1.96732 11.3583ZM11.3209 16.0448C11.3897 15.8189 11.4271 15.5794 11.4271 15.3314C11.4271 14.845 11.2842 14.3915 11.039 14.0097C12.373 13.4648 13.4423 12.4029 13.9962 11.0735C14.3753 11.3137 14.824 11.4533 15.305 11.4533C15.5603 11.4533 15.8066 11.4141 16.0382 11.3413C15.2989 13.5578 13.5402 15.3118 11.3209 16.0448Z" fill="#B1BAD1"/>
</g>
<defs>
<clipPath id="clip0_230_128">
<rect width="18" height="18" fill="white"/>
</clipPath>
</defs>
</svg>
