<svg width="18" height="18" viewBox="0 0 18 18" fill="none" xmlns="http://www.w3.org/2000/svg">
<g clip-path="url(#clip0_230_19)">
<path d="M9.0016 0C6.43015 0 4.32812 2.10203 4.32812 4.67348C4.32812 7.24492 6.43015 9.34695 9.0016 9.34695C11.573 9.34695 13.6751 7.24492 13.6751 4.67348C13.6751 2.10203 11.573 0 9.0016 0Z" fill="currentColor"/>
<path d="M17.0221 13.0817C16.8996 12.7756 16.7364 12.4899 16.5527 12.2245C15.6139 10.8368 14.165 9.91841 12.5323 9.69392C12.3283 9.67353 12.1038 9.71431 11.9405 9.83677C11.0833 10.4694 10.0629 10.7959 9.00169 10.7959C7.94044 10.7959 6.92005 10.4694 6.0629 9.83677C5.89962 9.71431 5.67513 9.6531 5.47107 9.69392C3.83841 9.91841 2.36903 10.8368 1.45067 12.2245C1.267 12.4899 1.10372 12.796 0.9813 13.0817C0.920089 13.2041 0.940479 13.347 1.00169 13.4695C1.16497 13.7552 1.36903 14.0409 1.55271 14.2858C1.83841 14.6736 2.14454 15.0205 2.4915 15.347C2.7772 15.6327 3.10372 15.898 3.43028 16.1633C5.04251 17.3674 6.9813 18 8.9813 18C10.9813 18 12.9201 17.3674 14.5323 16.1633C14.8588 15.9184 15.1854 15.6327 15.4711 15.347C15.7976 15.0205 16.1242 14.6735 16.4099 14.2858C16.614 14.0205 16.7977 13.7552 16.9609 13.4695C17.0629 13.347 17.0833 13.2041 17.0221 13.0817Z" fill="currentColor"/>
</g>
<defs>
<clipPath id="clip0_230_19">
<rect width="18" height="18" fill="white"/>
</clipPath>
</defs>
</svg>
