<svg width="18" height="18" viewBox="0 0 18 18" fill="none" xmlns="http://www.w3.org/2000/svg">
<g clip-path="url(#clip0_230_7627)">
<path d="M12.025 10.125C11.016 10.125 10.5309 10.6875 8.875 10.6875C7.21914 10.6875 6.7375 10.125 5.725 10.125C3.11641 10.125 1 12.2414 1 14.85V16.3125C1 17.2441 1.75586 18 2.6875 18H15.0625C15.9941 18 16.75 17.2441 16.75 16.3125V14.85C16.75 12.2414 14.6336 10.125 12.025 10.125ZM15.625 16.3125C15.625 16.6219 15.3719 16.875 15.0625 16.875H2.6875C2.37812 16.875 2.125 16.6219 2.125 16.3125V14.85C2.125 12.8637 3.73867 11.25 5.725 11.25C6.41406 11.25 7.09961 11.8125 8.875 11.8125C10.6469 11.8125 11.3359 11.25 12.025 11.25C14.0113 11.25 15.625 12.8637 15.625 14.85V16.3125ZM8.875 9C11.3605 9 13.375 6.98555 13.375 4.5C13.375 2.01445 11.3605 0 8.875 0C6.38945 0 4.375 2.01445 4.375 4.5C4.375 6.98555 6.38945 9 8.875 9ZM8.875 1.125C10.7348 1.125 12.25 2.64023 12.25 4.5C12.25 6.35977 10.7348 7.875 8.875 7.875C7.01523 7.875 5.5 6.35977 5.5 4.5C5.5 2.64023 7.01523 1.125 8.875 1.125Z" fill="#B1BAD1"/>
</g>
<defs>
<clipPath id="clip0_230_7627">
<rect width="15.75" height="18" fill="white" transform="translate(1)"/>
</clipPath>
</defs>
</svg>
