<svg width="18" height="18" viewBox="0 0 18 18" fill="none" xmlns="http://www.w3.org/2000/svg">
<path d="M13.1539 6.40376H18V4.15376C18 2.72223 16.8354 1.55761 15.4039 1.55761H2.59615C1.16462 1.55761 0 2.72223 0 4.15376V13.8461C0 15.2776 1.16462 16.4422 2.59615 16.4422H15.4039C16.8354 16.4422 18 15.2776 18 13.8461V11.5961H13.1539C11.7223 11.5961 10.5577 10.4314 10.5577 8.99991C10.5577 7.56838 11.7223 6.40376 13.1539 6.40376Z" fill="currentColor"/>
<path d="M13.1534 7.44239C12.2945 7.44239 11.5957 8.14115 11.5957 9.00009C11.5957 9.85902 12.2945 10.5578 13.1534 10.5578H17.9996V7.44243H13.1534V7.44239ZM13.8457 9.51931H13.1534C12.8666 9.51931 12.6342 9.28682 12.6342 9.00009C12.6342 8.71335 12.8667 8.48087 13.1534 8.48087H13.8457C14.1325 8.48087 14.3649 8.71335 14.3649 9.00009C14.3649 9.28682 14.1325 9.51931 13.8457 9.51931Z" fill="currentColor"/>
</svg>
