<?xml version="1.0" standalone="no"?>
<!DOCTYPE svg PUBLIC "-//W3C//DTD SVG 20010904//EN"
 "http://www.w3.org/TR/2001/REC-SVG-20010904/DTD/svg10.dtd">
<svg version="1.0" xmlns="http://www.w3.org/2000/svg"
 width="260.000000pt" height="260.000000pt" viewBox="0 0 260.000000 260.000000"
 preserveAspectRatio="xMidYMid meet">
<metadata>
Created by potrace 1.14, written by Peter Selinger 2001-2017
</metadata>
<g transform="translate(0.000000,260.000000) scale(0.100000,-0.100000)"
fill="#000000" stroke="none">
<path d="M1147 2594 c-4 -4 -7 -17 -7 -30 0 -22 15 -32 60 -40 50 -9 127 -37
207 -76 86 -42 177 -119 206 -174 l16 -31 -54 -6 c-151 -15 -302 -152 -320
-291 -10 -69 10 -130 56 -175 46 -45 91 -60 160 -56 120 9 213 111 255 281 9
38 19 71 21 74 9 10 67 -68 94 -125 45 -95 63 -179 63 -290 0 -55 -3 -113 -8
-129 l-7 -30 -27 34 c-66 85 -133 130 -227 154 -109 29 -215 14 -307 -44 -58
-35 -62 -36 -95 -10 -42 33 -134 62 -204 66 -235 10 -417 -162 -417 -392 l0
-77 -58 -28 c-140 -67 -225 -208 -220 -363 l2 -65 -61 -30 c-241 -119 -294
-435 -105 -622 121 -120 303 -151 455 -79 34 16 68 37 75 45 11 13 16 12 41
-5 71 -52 141 -74 229 -74 99 0 145 11 220 57 l55 33 40 -27 c61 -40 122 -60
192 -63 168 -9 304 68 382 213 34 64 52 161 40 218 -6 32 -5 34 56 64 246 121
298 419 109 629 -19 21 -31 40 -27 43 17 10 97 19 166 19 44 0 109 -10 167
-26 83 -22 98 -23 126 -11 22 9 35 24 44 49 12 38 6 58 -27 89 -18 16 -138 52
-208 62 -52 8 -218 5 -257 -4 -21 -5 -38 -7 -38 -6 0 2 4 15 10 30 5 14 12 38
15 53 4 15 9 41 12 57 4 17 6 75 6 130 0 160 -46 328 -121 442 -41 64 -121
138 -166 154 -26 9 -39 24 -59 68 -41 87 -129 172 -235 225 -107 54 -306 109
-325 90z m498 -513 c-19 -111 -60 -196 -112 -235 -14 -10 -44 -21 -67 -23 -82
-10 -125 71 -83 153 40 78 146 142 230 141 l39 -1 -7 -35z m-525 -582 c44 -25
44 -27 26 -114 -7 -33 -11 -83 -9 -110 l4 -50 -38 -14 c-43 -15 -126 -73 -146
-102 -13 -18 -15 -18 -56 3 -85 42 -132 141 -113 237 31 148 199 225 332 150z
m502 12 c80 -34 126 -97 135 -186 10 -95 -54 -194 -146 -226 -29 -10 -34 -9
-74 28 -55 50 -101 78 -157 94 -65 18 -70 25 -70 86 0 160 164 268 312 204z
m-253 -467 c65 -41 93 -82 109 -159 22 -106 -58 -225 -169 -251 -192 -43 -344
161 -246 329 59 100 212 141 306 81z m-635 -20 c28 -26 69 -56 92 -66 39 -19
40 -22 34 -57 -3 -20 -3 -55 1 -79 7 -47 5 -49 -63 -81 -25 -12 -67 -40 -92
-63 -43 -37 -49 -39 -74 -29 -140 58 -168 267 -50 366 27 23 80 53 97 55 1 0
26 -21 55 -46z m1177 9 c22 -14 52 -47 67 -72 22 -38 27 -58 26 -113 0 -59 -4
-73 -35 -117 -62 -93 -178 -126 -278 -80 -70 31 -71 33 -54 87 8 26 14 81 14
123 0 76 0 77 27 84 34 8 111 57 142 90 30 32 41 31 91 -2z m-1463 -459 c20
-20 60 -49 88 -65 l52 -30 -5 -63 c-4 -43 0 -81 12 -121 l17 -59 -26 -23 c-98
-84 -278 -40 -335 83 -53 112 -7 244 104 295 22 10 44 19 48 19 4 0 25 -16 45
-36z m533 -5 c49 -46 113 -81 177 -98 30 -9 42 -17 43 -31 1 -11 2 -30 3 -42
1 -13 -3 -42 -10 -65 -37 -129 -179 -196 -303 -143 -132 57 -177 210 -96 328
29 42 99 92 130 92 6 0 32 -18 56 -41z m574 -39 c37 -25 92 -50 125 -56 40 -8
50 -23 50 -76 0 -58 -21 -112 -58 -151 -78 -82 -216 -97 -297 -33 -26 21 -26
21 -12 76 8 30 13 84 12 118 l-3 64 41 19 c23 10 56 28 72 39 37 24 33 24 70
0z"/>
</g>
</svg>
