<svg width="113" height="24" viewBox="0 0 113 24" fill="none" xmlns="http://www.w3.org/2000/svg">
<g clip-path="url(#clip0_230_561)">
<path fill-rule="evenodd" clip-rule="evenodd" d="M112.262 6.47839H112.778L104.885 24H104.37L112.262 6.47839Z" fill="#2B2A29"/>
<path d="M75.6876 10.9386H66.75V11.0804H75.6876V10.9386Z" fill="#2B2A29"/>
<path fill-rule="evenodd" clip-rule="evenodd" d="M42.691 2.9978H43.2072L37.5523 18.7211H37.0361L42.691 2.9978Z" fill="#2B2A29"/>
<path fill-rule="evenodd" clip-rule="evenodd" d="M35.4928 2.9978H36.009L30.3541 18.7211H29.8379L35.4928 2.9978Z" fill="#2B2A29"/>
<path d="M27.1045 16.8095C27.7607 18.3498 28.4454 18.7211 29.7586 18.7211H30.0443L32.3566 12.3008L34.326 16.8095C34.9831 18.3498 35.6392 18.7211 36.9525 18.7211H37.2382L42.9464 2.99784H42.6331L37.6944 16.6953L33.927 7.99109L35.725 2.99784H35.4393L33.7555 7.62076L32.5851 4.90946C31.928 3.36912 31.2433 2.99784 29.9301 2.99784H28.3035L32.1852 11.9295L30.4729 16.6953L25.3627 4.90946C24.7066 3.36912 24.0495 2.99784 22.7371 2.99784H21.0811L27.1045 16.8095ZM44.7454 2.99784C44.7454 3.91081 45.373 4.53818 46.2872 4.53818C47.229 4.53818 47.8566 3.91081 47.8566 2.99784C47.8566 2.0563 47.229 1.45654 46.2872 1.45654C45.373 1.45654 44.7454 2.0563 44.7454 2.99784ZM44.6882 16.7524C44.6882 18.4926 46.0301 18.7211 47.229 18.7211H47.8281V8.44805C47.8281 6.70779 46.4577 6.47931 45.2872 6.47931H44.6882V16.7524ZM59.1036 16.7524C59.1036 18.4926 60.4454 18.7211 61.6158 18.7211H62.2434V9.87511C62.2434 7.39228 60.874 6.19371 58.5331 6.19371C56.8199 6.19371 55.4781 6.8782 54.1943 7.93492L53.8801 8.21957C53.7658 6.67923 52.4811 6.47931 51.3393 6.47931H50.7403V16.7524C50.7403 18.4926 52.0821 18.7211 53.2801 18.7211H53.8801V8.56229C54.7381 7.83687 55.7181 6.96388 56.9056 6.96388C58.0475 6.96388 59.1036 7.82068 59.1036 9.90367V16.7524ZM75.6883 10.9594C75.4321 7.64932 72.6914 6.19371 70.2077 6.19371C67.1822 6.19371 63.9852 8.10533 63.9852 12.5855C63.9852 16.6667 67.0679 18.9782 70.0363 18.9782C72.2914 18.9782 74.4903 17.6653 75.3464 14.8684C74.6036 16.1241 73.377 16.7524 72.0923 16.7524C68.8668 16.7524 67.0107 13.8983 66.9822 10.9594H75.6883ZM66.9822 10.6738C67.0679 7.67788 68.6097 6.47931 70.0934 6.47931C71.5495 6.47931 72.7771 7.56364 72.7771 9.01926C72.7771 9.50383 72.6914 10.1321 72.3771 10.6738H66.9822ZM84.7087 17.2655C84.7087 18.4355 83.3955 18.6926 82.4536 18.7211C80.17 18.7497 78.2006 17.3226 77.1159 15.3539V17.6368C78.2863 18.3784 80.0843 19.0067 82.226 19.0067C84.7373 19.0067 87.0496 18.0928 87.0496 15.6671C87.0496 12.0723 79.2567 10.1883 79.2567 7.96253C79.2567 7.04956 80.17 6.47931 81.3118 6.47931C82.9108 6.47931 85.023 7.42084 86.1077 9.56095V7.27804C85.0801 6.65067 83.3393 6.19371 81.6261 6.19371C79.3138 6.19371 77.1159 7.07812 77.1159 9.47527C77.1159 12.9567 84.7087 14.5266 84.7087 17.2655ZM96.3557 17.2655C96.3557 18.4355 95.0424 18.6926 94.1006 18.7211C91.8169 18.7497 89.8475 17.3226 88.7628 15.3539V17.6368C89.9332 18.3784 91.7312 19.0067 93.872 19.0067C96.3842 19.0067 98.6965 18.0928 98.6965 15.6671C98.6965 12.0723 90.9036 10.1883 90.9036 7.96253C90.9036 7.04956 91.8169 6.47931 92.9587 6.47931C94.5577 6.47931 96.6699 7.42084 97.7546 9.56095V7.27804C96.7271 6.65067 94.9853 6.19371 93.273 6.19371C90.9608 6.19371 88.7628 7.07812 88.7628 9.47527C88.7628 12.9567 96.3557 14.5266 96.3557 17.2655ZM106.986 18.981L112.598 6.47931H112.284L108.287 15.411L104.149 7.82068C103.606 6.82108 103.235 6.47931 102.036 6.47931H99.8383L106.66 18.981H106.986Z" fill="#2B2A29"/>
<path fill-rule="evenodd" clip-rule="evenodd" d="M0.422465 14.4495C0.78911 13.8355 1.3786 13.3899 2.05189 13.19C1.90904 12.5179 2.00904 11.7934 2.38806 11.1594C2.75471 10.5454 3.34325 10.0989 4.01559 9.89895C3.86702 9.20113 3.98416 8.48427 4.35271 7.86737C5.13647 6.55456 6.86685 6.07761 8.22677 6.88966C8.37438 6.97725 8.51151 7.07816 8.63912 7.18859C9.55526 6.38415 10.8876 6.24516 11.9523 6.8811C12.416 7.15718 12.7722 7.5475 13.0055 7.99399C13.0303 7.89688 13.0541 7.79597 13.0741 7.68935C13.1903 7.07911 13.1912 6.36606 13.0389 5.73679C12.9274 5.23794 12.7532 4.72291 12.4694 4.29546C12.3332 4.08887 12.1675 3.90513 11.977 3.76519C11.938 4.1517 11.8256 4.63723 11.658 5.03231C11.0866 6.36416 9.97143 6.62977 9.21719 6.20422C8.30867 5.68824 8.22391 4.38399 9.21433 3.39772C9.73144 2.88364 10.4485 2.56662 11.1809 2.57995C10.9123 1.92687 10.3162 1.45277 9.6943 1.12433C9.16671 0.846348 8.5077 0.611203 7.88964 0.489347C7.75918 0.463643 7.67156 0.338931 7.69347 0.207554C7.71537 0.0723697 7.84298 -0.0190226 7.97726 0.00287349C8.66769 0.117114 9.37908 0.351307 9.94667 0.62834C10.8533 1.07197 11.6237 1.73838 11.8932 2.70275C12.4494 2.88935 12.9036 3.27205 13.2465 3.76138C13.6103 4.28118 13.8436 4.89331 13.9979 5.50926C14.2264 6.36892 14.2569 7.15623 14.1645 7.86071C14.1112 8.26245 14.0179 8.66134 13.8798 9.06118C14.9168 8.79843 16.0625 8.8765 17.271 9.30014C17.5881 9.41152 17.7548 9.759 17.6434 10.077C17.5319 10.394 17.1843 10.5615 16.8672 10.4502C15.7844 10.0703 14.8035 10.0246 13.9369 10.3121C15.0968 11.1623 15.4435 12.7759 14.6921 14.0364C14.3245 14.6513 13.736 15.0969 13.0627 15.2968C13.2074 15.9832 13.0941 16.7115 12.7255 17.3274C12.2189 18.1766 11.2885 18.704 10.2981 18.704C9.63145 18.704 8.96768 18.466 8.44104 18.0062C7.53824 18.7983 6.20784 18.9582 5.12695 18.3137C4.97934 18.2252 4.84316 18.1252 4.71745 18.0157C3.80608 18.8211 2.46235 18.9554 1.40146 18.3213C0.0596297 17.5226 -0.377487 15.7899 0.422465 14.4495ZM9.80477 4.00319C9.34289 4.4373 9.07053 5.19796 9.60764 5.53116C9.99047 5.7644 10.6142 5.61303 11.0123 4.74671C11.1666 4.41255 11.3066 3.89371 11.3294 3.48816C10.7904 3.39867 10.2067 3.62239 9.80477 4.00319ZM7.60109 7.93496C6.82971 7.47515 5.845 7.74456 5.39931 8.49189C4.86316 9.38867 5.31456 10.552 6.31831 10.8529C6.67638 10.3978 7.18207 10.056 7.74203 9.88943C7.62204 9.31918 7.68299 8.71275 7.91536 8.17963C7.82203 8.08538 7.71727 8.00446 7.60109 7.93496ZM11.3275 7.92735C10.559 7.46848 9.57431 7.73219 9.12576 8.48427C8.89339 8.87269 8.8334 9.35916 8.98006 9.80755C9.70001 9.92084 10.3476 10.3093 10.7876 10.8862C11.2314 10.8091 11.6561 10.5377 11.9113 10.0808C12.3265 9.32774 12.0732 8.37098 11.3275 7.92735ZM12.2494 14.1944C12.2541 14.1944 12.2589 14.1944 12.2637 14.1944C12.836 14.1944 13.3531 13.9021 13.6455 13.4118C14.0988 12.6512 13.8493 11.663 13.0893 11.2099C12.9732 11.1413 12.8522 11.088 12.7265 11.0499C12.3789 11.4916 11.8751 11.8458 11.3028 12.0133C11.4228 12.5865 11.3656 13.1815 11.1295 13.7241C11.419 14.0135 11.818 14.1887 12.2437 14.1934C12.2456 14.1934 12.2475 14.1934 12.2494 14.1944ZM10.2981 17.4855C10.8704 17.4855 11.3866 17.1932 11.6799 16.7029C11.9189 16.3012 11.9685 15.8156 11.8246 15.3777C11.2818 15.292 10.7904 15.0502 10.4076 14.717C10.099 14.9903 9.73335 15.1911 9.33718 15.3073C9.45622 15.8775 9.39622 16.4773 9.16671 17.0104C9.16576 17.0114 9.16576 17.0133 9.16481 17.0152C9.46098 17.3122 9.87048 17.4855 10.2981 17.4855ZM9.6324 13.7755C9.6324 13.7746 9.63335 13.7746 9.63335 13.7736C10.2971 13.1557 10.3114 12.1219 9.6962 11.4831C9.6943 11.4812 9.6924 11.4793 9.69049 11.4774C9.02767 10.7948 7.95059 10.85 7.3411 11.5297C6.74876 12.1895 6.81637 13.2034 7.463 13.7879C7.463 13.7879 7.463 13.7888 7.46395 13.7888C8.08678 14.3515 9.03053 14.3343 9.6324 13.7755ZM5.75168 17.2675C6.5202 17.7263 7.5049 17.4636 7.95345 16.7124C8.19724 16.3031 8.23915 15.8109 8.0982 15.3872C7.36587 15.2711 6.72209 14.8722 6.2926 14.3086C5.83357 14.3886 5.4136 14.6694 5.17076 15.1083C5.17076 15.1093 5.1698 15.1093 5.1698 15.1093C4.75173 15.8632 5.0041 16.8219 5.75168 17.2675ZM5.77453 13.1824C5.68787 12.7788 5.69168 12.3618 5.78596 11.9591C5.30123 11.7763 4.85744 11.4564 4.53079 11.0261C4.07749 11.1089 3.6737 11.3831 3.43467 11.7839C2.90422 12.6712 3.34325 13.8412 4.35271 14.1439C4.71269 13.686 5.22504 13.3452 5.77453 13.1824ZM2.02523 17.2751C2.66995 17.6597 3.47943 17.5435 3.98892 17.0275C3.7337 16.4487 3.68989 15.8204 3.82227 15.2511C3.32039 15.0626 2.88042 14.7294 2.5671 14.3172C2.11284 14.3991 1.7081 14.6742 1.46907 15.074C1.01576 15.8347 1.26051 16.82 2.02523 17.2751Z" fill="#FF4A3D"/>
</g>
<defs>
<clipPath id="clip0_230_561">
<rect width="112.8" height="24" fill="white"/>
</clipPath>
</defs>
</svg>
