<svg width="113" height="24" xmlns="http://www.w3.org/2000/svg">
 <defs>
  <clipPath id="clip0_230_561">
   <rect id="svg_1" fill="white" height="24" width="112.8"/>
  </clipPath>
 </defs>
 <g>
  <title>background</title>
  <rect fill="none" id="canvas_background" height="402" width="582" y="-1" x="-1"/>
 </g>
 <g>
  <title>Layer 1</title>
  <g id="svg_2" clip-path="url(#clip0_230_561)">
   <path id="svg_3" fill="#2B2A29" d="m112.262,6.672565l0.516,0l-7.893,17.52161l-0.515,0l7.892,-17.52161z" clip-rule="evenodd" fill-rule="evenodd"/>
   <path id="svg_4" fill="#2B2A29" d="m75.6876,11.132775l-8.9376,0l0,0.1418l8.9376,0l0,-0.1418z"/>
   <path id="svg_5" fill="#2B2A29" d="m42.691,3.191975l0.5162,0l-5.6549,15.7233l-0.5162,0l5.6549,-15.7233z" clip-rule="evenodd" fill-rule="evenodd"/>
   <path id="svg_6" fill="#2B2A29" d="m35.4928,3.191975l0.5162,0l-5.6549,15.7233l-0.5162,0l5.6549,-15.7233z" clip-rule="evenodd" fill-rule="evenodd"/>
   <path id="svg_7" fill="#2B2A29" d="m27.1045,17.003675c0.6562,1.5403 1.3409,1.9116 2.6541,1.9116l0.2857,0l2.3123,-6.4203l1.9694,4.5087c0.6571,1.5403 1.3132,1.9116 2.6265,1.9116l0.2857,0l5.7082,-15.72326l-0.3133,0l-4.9387,13.69746l-3.7674,-8.70421l1.798,-4.99325l-0.2857,0l-1.6838,4.62292l-1.1704,-2.7113c-0.6571,-1.54034 -1.3418,-1.91162 -2.655,-1.91162l-1.6266,0l3.8817,8.93166l-1.7123,4.7658l-5.1102,-11.78584c-0.6561,-1.54034 -1.3132,-1.91162 -2.6256,-1.91162l-1.656,0l6.0234,13.81166zm17.6409,-13.81166c0,0.91297 0.6276,1.54034 1.5418,1.54034c0.9418,0 1.5694,-0.62737 1.5694,-1.54034c0,-0.94154 -0.6276,-1.5413 -1.5694,-1.5413c-0.9142,0 -1.5418,0.59976 -1.5418,1.5413zm-0.0572,13.75456c0,1.7402 1.3419,1.9687 2.5408,1.9687l0.5991,0l0,-10.27305c0,-1.74026 -1.3704,-1.96874 -2.5409,-1.96874l-0.599,0l0,10.27309zm14.4154,0c0,1.7402 1.3418,1.9687 2.5122,1.9687l0.6276,0l0,-8.84599c0,-2.48283 -1.3694,-3.6814 -3.7103,-3.6814c-1.7132,0 -3.055,0.68449 -4.3388,1.74121l-0.3142,0.28465c-0.1143,-1.54034 -1.399,-1.74026 -2.5408,-1.74026l-0.599,0l0,10.27309c0,1.7402 1.3418,1.9687 2.5398,1.9687l0.6,0l0,-10.15881c0.858,-0.72542 1.838,-1.59841 3.0255,-1.59841c1.1419,0 2.198,0.8568 2.198,2.93979l0,6.84873zm16.5847,-5.793c-0.2562,-3.31008 -2.9969,-4.76569 -5.4806,-4.76569c-3.0255,0 -6.2225,1.91162 -6.2225,6.39179c0,4.0812 3.0827,6.3927 6.0511,6.3927c2.2551,0 4.454,-1.3129 5.3101,-4.1098c-0.7428,1.2557 -1.9694,1.884 -3.2541,1.884c-3.2255,0 -5.0816,-2.8541 -5.1101,-5.793l8.7061,0zm-8.7061,-0.2856c0.0857,-2.99592 1.6275,-4.19449 3.1112,-4.19449c1.4561,0 2.6837,1.08433 2.6837,2.53995c0,0.48457 -0.0857,1.11284 -0.4,1.65454l-5.3949,0zm17.7265,6.5917c0,1.17 -1.3132,1.4271 -2.2551,1.4556c-2.2836,0.0286 -4.253,-1.3985 -5.3377,-3.3672l0,2.2829c1.1704,0.7416 2.9684,1.3699 5.1101,1.3699c2.5113,0 4.8236,-0.9139 4.8236,-3.3396c0,-3.5948 -7.7929,-5.4788 -7.7929,-7.70457c0,-0.91297 0.9133,-1.48322 2.0551,-1.48322c1.599,0 3.7112,0.94153 4.7959,3.08164l0,-2.28291c-1.0276,-0.62737 -2.7684,-1.08433 -4.4816,-1.08433c-2.3123,0 -4.5102,0.88441 -4.5102,3.28156c0,3.48143 7.5928,5.05133 7.5928,7.79023zm11.647,0c0,1.17 -1.3133,1.4271 -2.2551,1.4556c-2.2837,0.0286 -4.2531,-1.3985 -5.3378,-3.3672l0,2.2829c1.1704,0.7416 2.9684,1.3699 5.1092,1.3699c2.5122,0 4.8245,-0.9139 4.8245,-3.3396c0,-3.5948 -7.7929,-5.4788 -7.7929,-7.70457c0,-0.91297 0.9133,-1.48322 2.0551,-1.48322c1.599,0 3.7112,0.94153 4.7959,3.08164l0,-2.28291c-1.0275,-0.62737 -2.7693,-1.08433 -4.4816,-1.08433c-2.3122,0 -4.5102,0.88441 -4.5102,3.28156c0,3.48143 7.5929,5.05133 7.5929,7.79023zm10.6303,1.7155l5.612,-12.50169l-0.314,0l-3.997,8.93169l-4.138,-7.59032c-0.543,-0.9996 -0.914,-1.34137 -2.113,-1.34137l-2.1977,0l6.8217,12.50169l0.326,0z"/>
   <path id="svg_8" fill="#FF4A3D" d="m0.42247,14.643675c0.36664,-0.614 0.95613,-1.0596 1.62942,-1.2595c-0.14285,-0.6721 -0.04285,-1.3966 0.33617,-2.0306c0.36665,-0.614 0.95519,-1.0605 1.62753,-1.26045c-0.14857,-0.69782 -0.03143,-1.41468 0.33712,-2.03158c0.78376,-1.31281 2.51414,-1.78976 3.87406,-0.97771c0.14761,0.08759 0.28474,0.1885 0.41235,0.29893c0.91614,-0.80444 2.24848,-0.94343 3.31318,-0.30749c0.4637,0.27608 0.8199,0.6664 1.0532,1.11289c0.0248,-0.09711 0.0486,-0.19802 0.0686,-0.30464c0.1162,-0.61024 0.1171,-1.32329 -0.0352,-1.95256c-0.1115,-0.49885 -0.2857,-1.01388 -0.5695,-1.44133c-0.1362,-0.20659 -0.3019,-0.39033 -0.4924,-0.53027c-0.039,0.38651 -0.1514,0.87204 -0.319,1.26712c-0.5714,1.33185 -1.68657,1.59746 -2.44081,1.17191c-0.90852,-0.51598 -0.99328,-1.82023 -0.00286,-2.8065c0.51711,-0.51408 1.23417,-0.8311 1.96657,-0.81777c-0.2686,-0.65308 -0.8647,-1.12718 -1.4866,-1.45562c-0.52759,-0.27798 -1.1866,-0.51313 -1.80466,-0.63498c-0.13046,-0.02571 -0.21808,-0.15042 -0.19617,-0.2818c0.0219,-0.13518 0.14951,-0.22657 0.28379,-0.20468c0.69043,0.11424 1.40182,0.34844 1.96941,0.62547c0.90663,0.44363 1.67703,1.11004 1.94653,2.07441c0.5562,0.1866 1.0104,0.5693 1.3533,1.05863c0.3638,0.5198 0.5971,1.13193 0.7514,1.74788c0.2285,0.85966 0.259,1.64697 0.1666,2.35145c-0.0533,0.40174 -0.1466,0.80063 -0.2847,1.20047c1.037,-0.26275 2.1827,-0.18468 3.3912,0.23896c0.3171,0.11138 0.4838,0.45886 0.3724,0.77686c-0.1115,0.317 -0.4591,0.4845 -0.7762,0.3732c-1.0828,-0.3799 -2.0637,-0.4256 -2.9303,-0.1381c1.1599,0.8502 1.5066,2.4638 0.7552,3.7243c-0.3676,0.6149 -0.9561,1.0605 -1.6294,1.2604c0.1447,0.6864 0.0314,1.4147 -0.3372,2.0306c-0.5066,0.8492 -1.437,1.3766 -2.4274,1.3766c-0.66665,0 -1.33042,-0.238 -1.85706,-0.6978c-0.9028,0.7921 -2.2332,0.952 -3.31409,0.3075c-0.14761,-0.0885 -0.28379,-0.1885 -0.4095,-0.298c-0.91137,0.8054 -2.2551,0.9397 -3.31599,0.3056c-1.34183,-0.7987 -1.77895,-2.5314 -0.97899,-3.8718zm9.3823,-10.44631c-0.46188,0.43411 -0.73424,1.19477 -0.19713,1.52797c0.38283,0.23324 1.00656,0.08187 1.40466,-0.78445c0.1543,-0.33416 0.2943,-0.853 0.3171,-1.25855c-0.539,-0.08949 -1.1227,0.13423 -1.52463,0.51503zm-2.20368,3.93177c-0.77138,-0.45981 -1.75609,-0.1904 -2.20178,0.55693c-0.53615,0.89678 -0.08475,2.06011 0.919,2.36101c0.35807,-0.4551 0.86376,-0.7969 1.42372,-0.96347c-0.11999,-0.57025 -0.05904,-1.17668 0.17333,-1.7098c-0.09333,-0.09425 -0.19809,-0.17517 -0.31427,-0.24467zm3.72641,-0.00761c-0.7685,-0.45887 -1.75319,-0.19516 -2.20174,0.55692c-0.23237,0.38842 -0.29236,0.87489 -0.1457,1.32328c0.71995,0.11329 1.36754,0.50175 1.80754,1.07865c0.4438,-0.0771 0.8685,-0.3485 1.1237,-0.8054c0.4152,-0.75306 0.1619,-1.70982 -0.5838,-2.15345zm0.9219,6.26705c0.0047,0 0.0095,0 0.0143,0c0.5723,0 1.0894,-0.2923 1.3818,-0.7826c0.4533,-0.7606 0.2038,-1.7488 -0.5562,-2.2019c-0.1161,-0.0686 -0.2371,-0.1219 -0.3628,-0.16c-0.3476,0.4417 -0.8514,0.7959 -1.4237,0.9634c0.12,0.5732 0.0628,1.1682 -0.1733,1.7108c0.2895,0.2894 0.6885,0.4646 1.1142,0.4693c0.0019,0 0.0038,0 0.0057,0.001zm-1.9513,3.2911c0.5723,0 1.0885,-0.2923 1.3818,-0.7826c0.239,-0.4017 0.2886,-0.8873 0.1447,-1.3252c-0.5428,-0.0857 -1.0342,-0.3275 -1.417,-0.6607c-0.3086,0.2733 -0.67425,0.4741 -1.07042,0.5903c0.11904,0.5702 0.05904,1.17 -0.17047,1.7031c-0.00095,0.001 -0.00095,0.0029 -0.0019,0.0048c0.29617,0.297 0.70567,0.4703 1.13329,0.4703zm-0.6657,-3.71c0,-0.0009 0.00095,-0.0009 0.00095,-0.0019c0.66375,-0.6179 0.67805,-1.6517 0.06285,-2.2905c-0.0019,-0.0019 -0.0038,-0.0038 -0.00571,-0.0057c-0.66282,-0.6826 -1.7399,-0.6274 -2.34939,0.0523c-0.59234,0.6598 -0.52473,1.6737 0.1219,2.2582c0,0 0,0.0009 0.00095,0.0009c0.62283,0.5627 1.56658,0.5455 2.16845,-0.0133zm-3.88072,3.492c0.76852,0.4588 1.75322,0.1961 2.20177,-0.5551c0.24379,-0.4093 0.2857,-0.9015 0.14475,-1.3252c-0.73233,-0.1161 -1.37611,-0.515 -1.8056,-1.0786c-0.45903,0.08 -0.879,0.3608 -1.12184,0.7997c0,0.001 -0.00096,0.001 -0.00096,0.001c-0.41807,0.7539 -0.1657,1.7126 0.58188,2.1582zm0.02285,-4.0851c-0.08666,-0.4036 -0.08285,-0.8206 0.01143,-1.2233c-0.48473,-0.1828 -0.92852,-0.5027 -1.25517,-0.933c-0.4533,0.0828 -0.85709,0.357 -1.09612,0.7578c-0.53045,0.8873 -0.09142,2.0573 0.91804,2.36c0.35998,-0.4579 0.87233,-0.7987 1.42182,-0.9615zm-3.7493,4.0927c0.64472,0.3846 1.4542,0.2684 1.96369,-0.2476c-0.25522,-0.5788 -0.29903,-1.2071 -0.16665,-1.7764c-0.50188,-0.1885 -0.94185,-0.5217 -1.25517,-0.9339c-0.45426,0.0819 -0.859,0.357 -1.09803,0.7568c-0.45331,0.7607 -0.20856,1.746 0.55616,2.2011z" clip-rule="evenodd" fill-rule="evenodd"/>
  </g>
  <rect id="svg_10" height="26.407767" width="104.271846" y="0.437498" x="17.956304" stroke-width="0" stroke="#000" fill="#fff"/>
  <text stroke="#000" transform="matrix(0.9664604663848877,0,0,1,3.8055313289078185,0) " xml:space="preserve" text-anchor="start" font-family="'Simonetta', serif" font-size="17" id="svg_11" y="17.330702" x="16.650989" stroke-width="0" fill="#000000">Вино России</text>
 </g>
</svg>